<svg width="125" height="125" viewBox="0 0 125 125" fill="none" xmlns="http://www.w3.org/2000/svg">
<path d="M120.9 66.3997C119.8 66.3997 118.8 65.9997 118.1 65.1997C117.3 64.4997 116.9 63.3997 116.9 62.3997C116.9 62.0997 116.9 61.8997 117 61.5997C117.1 61.3997 117.1 61.0997 117.2 60.7997C117.3 60.5997 117.4 60.2997 117.6 60.0997C117.7 59.8997 117.9 59.6997 118.1 59.4997C118.3 59.2997 118.5 59.1997 118.7 58.9997C118.9 58.8997 119.2 58.6997 119.4 58.5997C119.6 58.4997 119.9 58.3997 120.2 58.3997C121.5 58.0997 122.9 58.5997 123.8 59.4997C124 59.6997 124.2 59.8997 124.3 60.0997C124.4 60.2997 124.6 60.5997 124.7 60.7997C124.8 60.9997 124.9 61.2997 124.9 61.5997C124.9 61.8997 125 62.0997 125 62.3997C125 63.3997 124.6 64.4997 123.8 65.1997C122.9 65.9997 121.9 66.3997 120.9 66.3997Z" fill="#FFC44C"/>
<path d="M62.4004 7.99991C61.4004 7.99991 60.3004 7.59991 59.6004 6.79991C59.4004 6.59991 59.3004 6.39991 59.1004 6.19991C59.0004 5.99991 58.8004 5.79991 58.7004 5.49991C58.6004 5.29991 58.5004 4.99991 58.5004 4.69991C58.5004 4.39991 58.4004 4.19991 58.4004 3.89991C58.4004 2.89991 58.8004 1.79991 59.6004 1.09991C59.8004 0.999912 60.0004 0.799912 60.2004 0.699912C60.4004 0.599912 60.6004 0.399912 60.9004 0.299912C61.1004 0.199912 61.4004 0.099912 61.7004 0.099912C63.0004 -0.200088 64.4004 0.299912 65.3004 1.19991C66.0004 1.89991 66.4004 2.99991 66.4004 3.99991C66.4004 4.29991 66.4004 4.49991 66.3004 4.79991C66.3004 5.09991 66.2004 5.29991 66.1004 5.59991C66.0004 5.79991 65.9004 5.99991 65.8004 6.19991C65.7004 6.39991 65.5004 6.59991 65.3004 6.79991C65.1004 6.99991 64.9004 7.09991 64.7004 7.29991C64.5004 7.49991 64.2004 7.59991 64.0004 7.69991C63.8004 7.79991 63.5004 7.89991 63.2004 7.89991C63.0004 7.99991 62.7004 7.99991 62.4004 7.99991Z" fill="#FFC44C"/>
<path d="M62.4008 124.9C62.1008 124.9 61.9008 124.9 61.6008 124.8C61.4008 124.7 61.1008 124.7 60.8008 124.6C60.6008 124.5 60.3008 124.4 60.1008 124.2C59.9008 124.1 59.7008 123.9 59.5008 123.7C59.3008 123.5 59.2008 123.3 59.0008 123.1C58.9008 122.9 58.7008 122.7 58.6008 122.4C58.5008 122.2 58.4008 121.9 58.4008 121.7C58.4008 121.4 58.3008 121.2 58.3008 120.9C58.3008 119.9 58.7008 118.8 59.5008 118.1C59.7008 117.9 59.9008 117.7 60.1008 117.6C60.3008 117.4 60.5008 117.3 60.8008 117.2C61.0008 117.1 61.3008 117 61.6008 117C62.9008 116.7 64.3008 117.2 65.2008 118.1C65.4008 118.3 65.6008 118.5 65.7008 118.7C65.8008 118.9 66.0008 119.2 66.1008 119.4C66.2008 119.6 66.3008 119.9 66.3008 120.2C66.4008 120.5 66.4008 120.7 66.4008 121C66.4008 121.3 66.4008 121.5 66.3008 121.8C66.3008 122 66.2008 122.3 66.1008 122.5C66.0008 122.7 65.9008 123 65.7008 123.2C65.6008 123.4 65.4008 123.6 65.2008 123.8C64.5008 124.4 63.5008 124.9 62.4008 124.9Z" fill="#FFC44C"/>
<path d="M4 66.3997C2.9 66.3997 1.9 65.9997 1.2 65.1997C0.4 64.4997 0 63.4997 0 62.3997C0 62.0997 -9.68575e-08 61.8997 0.0999999 61.5997C0.0999999 61.3997 0.2 61.0997 0.3 60.7997C0.4 60.5997 0.5 60.2997 0.7 60.0997C0.8 59.8997 1 59.6997 1.2 59.4997C1.4 59.2997 1.6 59.1997 1.8 58.9997C2 58.8997 2.3 58.6997 2.5 58.5997C2.7 58.4997 3 58.3997 3.3 58.3997C4.6 58.0997 6 58.5997 6.9 59.4997C7 59.7997 7.2 59.9997 7.3 60.1997C7.4 60.3997 7.6 60.6997 7.7 60.8997C7.8 61.0997 7.9 61.3997 7.9 61.6997C8 61.8997 8 62.1997 8 62.3997C8 63.3997 7.6 64.4997 6.8 65.1997C6.1 65.9997 5 66.3997 4 66.3997Z" fill="#FFC44C"/>
<path d="M103.799 25.0999C103.499 25.0999 103.299 25.0999 102.999 24.9999C102.699 24.8999 102.499 24.8999 102.199 24.7999C101.999 24.6999 101.699 24.5999 101.499 24.3999C101.299 24.2999 101.099 24.0999 100.899 23.8999C100.199 23.1999 99.6992 22.0999 99.6992 21.0999C99.6992 20.7999 99.6992 20.5999 99.7992 20.2999C99.7992 20.0999 99.8992 19.7999 99.9992 19.4999C100.099 19.2999 100.199 18.9999 100.399 18.7999C100.499 18.5999 100.699 18.3999 100.899 18.1999C101.099 17.9999 101.299 17.7999 101.499 17.6999C101.699 17.4999 101.999 17.3999 102.199 17.2999C102.399 17.1999 102.699 17.0999 102.999 17.0999C104.299 16.7999 105.699 17.2999 106.599 18.1999C106.799 18.3999 106.899 18.5999 107.099 18.7999C107.199 18.9999 107.399 19.2999 107.499 19.4999C107.599 19.6999 107.699 19.9999 107.699 20.2999C107.699 20.5999 107.799 20.7999 107.799 21.0999C107.799 22.1999 107.399 23.1999 106.599 23.8999C105.799 24.6999 104.799 25.0999 103.799 25.0999Z" fill="#FFC44C"/>
<path d="M21.0996 107.8C20.0996 107.8 18.9996 107.4 18.2996 106.6C17.4996 105.8 17.0996 104.8 17.0996 103.8C17.0996 102.8 17.4996 101.7 18.2996 101C18.4996 100.8 18.6996 100.6 18.8996 100.5C19.0996 100.4 19.3996 100.2 19.5996 100.1C19.7996 100 20.0996 99.9002 20.3996 99.9002C20.8996 99.8002 21.3996 99.8002 21.9996 99.9002C22.1996 99.9002 22.4996 100 22.6996 100.1C22.8996 100.2 23.1996 100.3 23.3996 100.5C23.5996 100.6 23.7996 100.8 23.9996 101C24.7996 101.8 25.1996 102.8 25.1996 103.8C25.1996 104.8 24.7996 105.9 23.9996 106.6C23.1996 107.3 22.1996 107.8 21.0996 107.8Z" fill="#FFC44C"/>
<path d="M103.801 107.8C102.701 107.8 101.701 107.4 101.001 106.6C100.301 105.8 99.8008 104.8 99.8008 103.8C99.8008 103.5 99.8008 103.3 99.9008 103C99.9008 102.7 100.001 102.5 100.101 102.2C100.201 102 100.301 101.7 100.501 101.5C100.601 101.3 100.801 101.1 101.001 100.9C101.201 100.7 101.401 100.5 101.601 100.4C101.801 100.3 102.101 100.1 102.301 99.9996C102.501 99.8996 102.801 99.7996 103.101 99.7996C103.601 99.6996 104.201 99.6996 104.701 99.7996C105.001 99.7996 105.201 99.8996 105.501 99.9996C105.701 100.1 106.001 100.2 106.201 100.4C106.401 100.5 106.601 100.7 106.801 100.9C107.001 101.1 107.101 101.3 107.301 101.5C107.401 101.7 107.601 101.9 107.701 102.2C107.801 102.5 107.901 102.7 107.901 103C107.901 103.3 108.001 103.5 108.001 103.8C108.001 104.8 107.601 105.9 106.801 106.6C105.801 107.3 104.801 107.8 103.801 107.8Z" fill="#FFC44C"/>
<path d="M21.0996 25.1004C19.9996 25.1004 18.9996 24.7004 18.2996 23.9004C17.4996 23.2004 17.0996 22.1004 17.0996 21.1004C17.0996 20.8004 17.0996 20.6004 17.1996 20.3004C17.1996 20.1004 17.2996 19.8004 17.3996 19.5004C17.4996 19.3004 17.5996 19.0004 17.7996 18.8004C17.8996 18.6004 18.0996 18.4004 18.2996 18.2004C18.4996 18.0004 18.6996 17.8004 18.8996 17.7004C19.0996 17.5004 19.3996 17.4004 19.5996 17.3004C19.7996 17.2004 20.0996 17.1004 20.2996 17.1004C20.7996 17.0004 21.2996 17.0004 21.8996 17.1004C22.0996 17.2004 22.3996 17.2004 22.5996 17.3004C22.7996 17.4004 23.0996 17.5004 23.2996 17.7004C23.4996 17.8004 23.6996 18.0004 23.8996 18.2004C24.0996 18.4004 24.2996 18.6004 24.3996 18.8004C24.4996 19.0004 24.6996 19.3004 24.7996 19.5004C24.8996 19.7004 24.9996 20.0004 24.9996 20.3004C24.9996 20.6004 25.0996 20.8004 25.0996 21.1004C25.0996 22.2004 24.6996 23.2004 23.8996 23.9004C23.1996 24.7004 22.1996 25.1004 21.0996 25.1004Z" fill="#FFC44C"/>
<path d="M120.9 66.3997C119.8 66.3997 118.8 65.9997 118.1 65.1997C117.3 64.4997 116.9 63.3997 116.9 62.3997C116.9 62.0997 116.9 61.8997 117 61.5997C117.1 61.3997 117.1 61.0997 117.2 60.7997C117.3 60.5997 117.4 60.2997 117.6 60.0997C117.7 59.8997 117.9 59.6997 118.1 59.4997C118.3 59.2997 118.5 59.1997 118.7 58.9997C118.9 58.8997 119.2 58.6997 119.4 58.5997C119.6 58.4997 119.9 58.3997 120.2 58.3997C121.5 58.0997 122.9 58.5997 123.8 59.4997C124 59.6997 124.2 59.8997 124.3 60.0997C124.4 60.2997 124.6 60.5997 124.7 60.7997C124.8 60.9997 124.9 61.2997 124.9 61.5997C124.9 61.8997 125 62.0997 125 62.3997C125 63.3997 124.6 64.4997 123.8 65.1997C122.9 65.9997 121.9 66.3997 120.9 66.3997Z" fill="#FFC44C"/>
<path d="M62.4004 7.99991C61.4004 7.99991 60.3004 7.59991 59.6004 6.79991C59.4004 6.59991 59.3004 6.39991 59.1004 6.19991C59.0004 5.99991 58.8004 5.79991 58.7004 5.49991C58.6004 5.29991 58.5004 4.99991 58.5004 4.69991C58.5004 4.39991 58.4004 4.19991 58.4004 3.89991C58.4004 2.89991 58.8004 1.79991 59.6004 1.09991C59.8004 0.999912 60.0004 0.799912 60.2004 0.699912C60.4004 0.599912 60.6004 0.399912 60.9004 0.299912C61.1004 0.199912 61.4004 0.099912 61.7004 0.099912C63.0004 -0.200088 64.4004 0.299912 65.3004 1.19991C66.0004 1.89991 66.4004 2.99991 66.4004 3.99991C66.4004 4.29991 66.4004 4.49991 66.3004 4.79991C66.3004 5.09991 66.2004 5.29991 66.1004 5.59991C66.0004 5.79991 65.9004 5.99991 65.8004 6.19991C65.7004 6.39991 65.5004 6.59991 65.3004 6.79991C65.1004 6.99991 64.9004 7.09991 64.7004 7.29991C64.5004 7.49991 64.2004 7.59991 64.0004 7.69991C63.8004 7.79991 63.5004 7.89991 63.2004 7.89991C63.0004 7.99991 62.7004 7.99991 62.4004 7.99991Z" fill="#FFC44C"/>
<path d="M62.4008 124.9C62.1008 124.9 61.9008 124.9 61.6008 124.8C61.4008 124.7 61.1008 124.7 60.8008 124.6C60.6008 124.5 60.3008 124.4 60.1008 124.2C59.9008 124.1 59.7008 123.9 59.5008 123.7C59.3008 123.5 59.2008 123.3 59.0008 123.1C58.9008 122.9 58.7008 122.7 58.6008 122.4C58.5008 122.2 58.4008 121.9 58.4008 121.7C58.4008 121.4 58.3008 121.2 58.3008 120.9C58.3008 119.9 58.7008 118.8 59.5008 118.1C59.7008 117.9 59.9008 117.7 60.1008 117.6C60.3008 117.4 60.5008 117.3 60.8008 117.2C61.0008 117.1 61.3008 117 61.6008 117C62.9008 116.7 64.3008 117.2 65.2008 118.1C65.4008 118.3 65.6008 118.5 65.7008 118.7C65.8008 118.9 66.0008 119.2 66.1008 119.4C66.2008 119.6 66.3008 119.9 66.3008 120.2C66.4008 120.5 66.4008 120.7 66.4008 121C66.4008 121.3 66.4008 121.5 66.3008 121.8C66.3008 122 66.2008 122.3 66.1008 122.5C66.0008 122.7 65.9008 123 65.7008 123.2C65.6008 123.4 65.4008 123.6 65.2008 123.8C64.5008 124.4 63.5008 124.9 62.4008 124.9Z" fill="#FFC44C"/>
<path d="M4 66.3997C2.9 66.3997 1.9 65.9997 1.2 65.1997C0.4 64.4997 0 63.4997 0 62.3997C0 62.0997 -9.68575e-08 61.8997 0.0999999 61.5997C0.0999999 61.3997 0.2 61.0997 0.3 60.7997C0.4 60.5997 0.5 60.2997 0.7 60.0997C0.8 59.8997 1 59.6997 1.2 59.4997C1.4 59.2997 1.6 59.1997 1.8 58.9997C2 58.8997 2.3 58.6997 2.5 58.5997C2.7 58.4997 3 58.3997 3.3 58.3997C4.6 58.0997 6 58.5997 6.9 59.4997C7 59.7997 7.2 59.9997 7.3 60.1997C7.4 60.3997 7.6 60.6997 7.7 60.8997C7.8 61.0997 7.9 61.3997 7.9 61.6997C8 61.8997 8 62.1997 8 62.3997C8 63.3997 7.6 64.4997 6.8 65.1997C6.1 65.9997 5 66.3997 4 66.3997Z" fill="#FFC44C"/>
<path d="M103.799 25.0999C103.499 25.0999 103.299 25.0999 102.999 24.9999C102.699 24.8999 102.499 24.8999 102.199 24.7999C101.999 24.6999 101.699 24.5999 101.499 24.3999C101.299 24.2999 101.099 24.0999 100.899 23.8999C100.199 23.1999 99.6992 22.0999 99.6992 21.0999C99.6992 20.7999 99.6992 20.5999 99.7992 20.2999C99.7992 20.0999 99.8992 19.7999 99.9992 19.4999C100.099 19.2999 100.199 18.9999 100.399 18.7999C100.499 18.5999 100.699 18.3999 100.899 18.1999C101.099 17.9999 101.299 17.7999 101.499 17.6999C101.699 17.4999 101.999 17.3999 102.199 17.2999C102.399 17.1999 102.699 17.0999 102.999 17.0999C104.299 16.7999 105.699 17.2999 106.599 18.1999C106.799 18.3999 106.899 18.5999 107.099 18.7999C107.199 18.9999 107.399 19.2999 107.499 19.4999C107.599 19.6999 107.699 19.9999 107.699 20.2999C107.699 20.5999 107.799 20.7999 107.799 21.0999C107.799 22.1999 107.399 23.1999 106.599 23.8999C105.799 24.6999 104.799 25.0999 103.799 25.0999Z" fill="#FFC44C"/>
<path d="M21.0996 107.8C20.0996 107.8 18.9996 107.4 18.2996 106.6C17.4996 105.8 17.0996 104.8 17.0996 103.8C17.0996 102.8 17.4996 101.7 18.2996 101C18.4996 100.8 18.6996 100.6 18.8996 100.5C19.0996 100.4 19.3996 100.2 19.5996 100.1C19.7996 100 20.0996 99.9002 20.3996 99.9002C20.8996 99.8002 21.3996 99.8002 21.9996 99.9002C22.1996 99.9002 22.4996 100 22.6996 100.1C22.8996 100.2 23.1996 100.3 23.3996 100.5C23.5996 100.6 23.7996 100.8 23.9996 101C24.7996 101.8 25.1996 102.8 25.1996 103.8C25.1996 104.8 24.7996 105.9 23.9996 106.6C23.1996 107.3 22.1996 107.8 21.0996 107.8Z" fill="#FFC44C"/>
<path d="M103.801 107.8C102.701 107.8 101.701 107.4 101.001 106.6C100.301 105.8 99.8008 104.8 99.8008 103.8C99.8008 103.5 99.8008 103.3 99.9008 103C99.9008 102.7 100.001 102.5 100.101 102.2C100.201 102 100.301 101.7 100.501 101.5C100.601 101.3 100.801 101.1 101.001 100.9C101.201 100.7 101.401 100.5 101.601 100.4C101.801 100.3 102.101 100.1 102.301 99.9996C102.501 99.8996 102.801 99.7996 103.101 99.7996C103.601 99.6996 104.201 99.6996 104.701 99.7996C105.001 99.7996 105.201 99.8996 105.501 99.9996C105.701 100.1 106.001 100.2 106.201 100.4C106.401 100.5 106.601 100.7 106.801 100.9C107.001 101.1 107.101 101.3 107.301 101.5C107.401 101.7 107.601 101.9 107.701 102.2C107.801 102.5 107.901 102.7 107.901 103C107.901 103.3 108.001 103.5 108.001 103.8C108.001 104.8 107.601 105.9 106.801 106.6C105.801 107.3 104.801 107.8 103.801 107.8Z" fill="#FFC44C"/>
<path d="M21.0996 25.1004C19.9996 25.1004 18.9996 24.7004 18.2996 23.9004C17.4996 23.2004 17.0996 22.1004 17.0996 21.1004C17.0996 20.8004 17.0996 20.6004 17.1996 20.3004C17.1996 20.1004 17.2996 19.8004 17.3996 19.5004C17.4996 19.3004 17.5996 19.0004 17.7996 18.8004C17.8996 18.6004 18.0996 18.4004 18.2996 18.2004C18.4996 18.0004 18.6996 17.8004 18.8996 17.7004C19.0996 17.5004 19.3996 17.4004 19.5996 17.3004C19.7996 17.2004 20.0996 17.1004 20.2996 17.1004C20.7996 17.0004 21.2996 17.0004 21.8996 17.1004C22.0996 17.2004 22.3996 17.2004 22.5996 17.3004C22.7996 17.4004 23.0996 17.5004 23.2996 17.7004C23.4996 17.8004 23.6996 18.0004 23.8996 18.2004C24.0996 18.4004 24.2996 18.6004 24.3996 18.8004C24.4996 19.0004 24.6996 19.3004 24.7996 19.5004C24.8996 19.7004 24.9996 20.0004 24.9996 20.3004C24.9996 20.6004 25.0996 20.8004 25.0996 21.1004C25.0996 22.2004 24.6996 23.2004 23.8996 23.9004C23.1996 24.7004 22.1996 25.1004 21.0996 25.1004Z" fill="#FFC44C"/>
<path d="M62.0008 104C85.5833 104 104.701 85.151 104.701 61.8998C104.701 38.6486 85.5833 19.7998 62.0008 19.7998C38.4182 19.7998 19.3008 38.6486 19.3008 61.8998C19.3008 85.151 38.4182 104 62.0008 104Z" fill="url(#paint0_linear)"/>
<defs>
<linearGradient id="paint0_linear" x1="62.0386" y1="103.973" x2="62.0386" y2="19.7446" gradientUnits="userSpaceOnUse">
<stop stop-color="#FFC14C"/>
<stop offset="1" stop-color="#FFD04D"/>
</linearGradient>
</defs>
</svg>
