<svg width="133" height="114" viewBox="0 0 133 114" fill="none" xmlns="http://www.w3.org/2000/svg">
<path d="M128.199 29.3993C127.099 29.3993 126.099 28.9993 125.399 28.1993C124.599 27.3993 124.199 26.3993 124.199 25.3993C124.199 25.0993 124.199 24.8993 124.299 24.5993C124.399 24.3993 124.399 24.0993 124.499 23.8993C124.599 23.6993 124.699 23.3993 124.899 23.1993C124.999 22.9993 125.199 22.7993 125.399 22.5993C126.299 21.6993 127.699 21.1993 128.999 21.4993C129.199 21.5993 129.499 21.5993 129.699 21.6993C129.899 21.7993 130.199 21.8993 130.399 22.0993C130.599 22.1993 130.799 22.3993 130.999 22.5993C131.199 22.7993 131.399 22.9993 131.499 23.1993C131.599 23.3993 131.799 23.6993 131.899 23.8993C131.999 24.0993 132.099 24.3993 132.099 24.5993C132.099 24.8993 132.199 25.0993 132.199 25.3993C132.199 26.3993 131.799 27.4993 130.999 28.1993C130.199 28.9993 129.199 29.3993 128.199 29.3993Z" fill="#9975FF"/>
<path d="M113.799 61.0002C113.499 61.0002 113.299 61.0002 112.999 60.9002C112.699 60.9002 112.499 60.8002 112.199 60.7002C111.999 60.6002 111.699 60.5002 111.499 60.3002C111.299 60.2002 111.099 60.0002 110.899 59.8002C110.699 59.6002 110.499 59.4002 110.399 59.2002C110.299 59.0002 110.099 58.7002 109.999 58.5002C109.899 58.3002 109.799 58.0002 109.799 57.7002C109.699 57.4002 109.699 57.2002 109.699 56.9002C109.699 56.6002 109.699 56.4002 109.799 56.1002C109.799 55.8002 109.899 55.6002 109.999 55.3002C110.099 55.1002 110.199 54.8002 110.399 54.6002C110.499 54.4002 110.699 54.2002 110.899 54.0002C111.099 53.8002 111.299 53.6002 111.499 53.5002C111.699 53.4002 111.999 53.2002 112.199 53.1002C112.399 53.0002 112.699 52.9002 112.999 52.9002C113.499 52.8002 113.999 52.8002 114.599 52.9002C114.799 52.9002 115.099 53.0002 115.399 53.1002C115.599 53.2002 115.899 53.3002 116.099 53.5002C116.299 53.6002 116.499 53.8002 116.699 54.0002C116.899 54.2002 117.099 54.4002 117.199 54.6002C117.399 54.8002 117.499 55.0002 117.599 55.3002C117.699 55.6002 117.799 55.8002 117.799 56.1002C117.899 56.4002 117.899 56.6002 117.899 56.9002C117.899 57.9002 117.499 59.0002 116.699 59.7002C116.499 59.9002 116.299 60.0002 116.099 60.2002C115.899 60.4002 115.599 60.5002 115.399 60.6002C115.199 60.7002 114.899 60.8002 114.599 60.8002C114.299 60.9002 114.099 61.0002 113.799 61.0002Z" fill="#2F2F2F"/>
<path d="M29.1992 8.99972C28.1992 8.99972 27.0992 8.59972 26.3992 7.79972C26.1992 7.59972 25.9992 7.39972 25.8992 7.19972C25.7992 6.99972 25.5992 6.69972 25.4992 6.49972C25.3992 6.29972 25.2992 5.99972 25.2992 5.69972C25.1992 5.39972 25.1992 5.19972 25.1992 4.89972C25.1992 4.59972 25.1992 4.39972 25.2992 4.09972C25.3992 3.79972 25.3992 3.59972 25.4992 3.29972C25.5992 2.99972 25.6992 2.79972 25.8992 2.59972C25.9992 2.39972 26.1992 2.19972 26.3992 1.99972C26.5992 1.79972 26.7992 1.59972 26.9992 1.49972C27.1992 1.39972 27.3992 1.19972 27.6992 1.09972C27.8992 0.999716 28.1992 0.899717 28.4992 0.899717C29.7992 0.599717 31.1992 1.09972 32.0992 1.99972C32.2992 2.19972 32.4992 2.39972 32.5992 2.59972C32.6992 2.79972 32.8992 3.09972 32.9992 3.29972C32.8992 3.69972 32.9992 3.99972 33.0992 4.19972C33.0992 4.49972 33.1992 4.69972 33.1992 4.99972C33.1992 5.29972 33.1992 5.49972 33.0992 5.79972C32.9992 5.99972 32.8992 6.29972 32.8992 6.49972C32.7992 6.69972 32.6992 6.99972 32.4992 7.19972C32.3992 7.39972 32.1992 7.59972 31.9992 7.79972C31.7992 7.99972 31.5992 8.09972 31.3992 8.29972C31.1992 8.39972 30.8992 8.59972 30.6992 8.69972C30.4992 8.79972 30.1992 8.89972 29.8992 8.89972C29.6992 8.99972 29.3992 8.99972 29.1992 8.99972Z" fill="#2F2F2F"/>
<path d="M4 83.7997C3.7 83.7997 3.5 83.7997 3.2 83.6997C2.9 83.5997 2.7 83.5997 2.4 83.4997C2.2 83.3997 1.9 83.2997 1.7 83.0997C1.5 82.9997 1.3 82.7997 1.1 82.5997C0.4 81.8997 0 80.8997 0 79.8997C0 79.5997 -9.68575e-08 79.3997 0.0999999 79.0997C0.0999999 78.8997 0.2 78.5997 0.3 78.2997C0.4 78.0997 0.5 77.7997 0.7 77.5997C0.8 77.3997 1 77.1997 1.2 76.9997C1.4 76.7997 1.6 76.5997 1.8 76.4997C2 76.3997 2.3 76.1997 2.5 76.0997C2.7 75.9997 3 75.8997 3.3 75.8997C4.6 75.5997 6 76.0997 6.9 76.9997C7.1 77.1997 7.2 77.3997 7.4 77.5997C7.5 77.7997 7.7 78.0997 7.8 78.2997C7.9 78.4997 8 78.7997 8 79.0997C8 79.2997 8 79.5997 8 79.8997C8 80.9997 7.6 81.9997 6.8 82.6997C6.1 83.3997 5.1 83.7997 4 83.7997Z" fill="#2F2F2F"/>
<path d="M106 113.8C104.9 113.8 103.9 113.4 103.2 112.6C102.5 111.9 102 110.8 102 109.8C102 109.5 102 109.3 102.1 109C102.1 108.8 102.2 108.5 102.3 108.2C102.4 108 102.5 107.7 102.7 107.5C102.8 107.3 103 107.1 103.2 106.9C103.9 106.1 105 105.7 106 105.7C107 105.7 108.1 106.1 108.8 106.9C109 107.1 109.1 107.3 109.3 107.5C109.4 107.7 109.6 108 109.7 108.2C109.8 108.4 109.9 108.7 109.9 109C109.9 109.3 110 109.5 110 109.8C110 110.9 109.6 111.9 108.8 112.6C108 113.4 107 113.8 106 113.8Z" fill="#9975FF"/>
<path d="M23.6992 114C22.6992 114 21.5992 113.6 20.8992 112.8C20.6992 112.6 20.4992 112.4 20.3992 112.2C20.2992 112 20.0992 111.8 19.9992 111.5C19.8992 111.2 19.7992 111 19.7992 110.7C19.7992 110.4 19.6992 110.2 19.6992 109.9C19.6992 109.6 19.6992 109.4 19.7992 109.1C19.8992 108.8 19.8992 108.6 19.9992 108.3C20.0992 108.1 20.1992 107.8 20.3992 107.6C20.4992 107.4 20.6992 107.2 20.8992 107C21.6992 106.3 22.6992 105.8 23.6992 105.8C24.7992 105.8 25.7992 106.2 26.4992 107C26.6992 107.2 26.8992 107.4 26.9992 107.6C27.0992 107.8 27.2992 108.1 27.3992 108.3C27.4992 108.5 27.5992 108.8 27.5992 109.1C27.5992 109.4 27.6992 109.6 27.6992 109.9C27.6992 110.2 27.6992 110.4 27.5992 110.7C27.4992 111 27.4992 111.2 27.3992 111.5C27.2992 111.7 27.1992 112 26.9992 112.2C26.8992 112.4 26.6992 112.6 26.4992 112.8C26.2992 113 26.0992 113.1 25.8992 113.3C25.6992 113.4 25.3992 113.6 25.1992 113.7C24.9992 113.8 24.6992 113.9 24.3992 113.9C24.1992 113.9 23.8992 114 23.6992 114Z" fill="#9975FF"/>
<path d="M106 83.6996C98.4005 94.8996 86.2005 102.3 72.7005 103.9C46.9005 107 23.4005 88.5996 20.2005 62.6996C17.1005 36.7996 35.6005 13.3996 61.4005 10.1996C74.9005 8.59965 88.4005 12.7996 98.5005 21.8996C87.0005 28.8996 80.6005 41.8996 82.2005 55.1996C83.8005 68.5996 93.1005 79.6996 106 83.6996Z" fill="url(#paint0_linear)"/>
<defs>
<linearGradient id="paint0_linear" x1="62.9543" y1="9.82879" x2="62.9543" y2="104.126" gradientUnits="userSpaceOnUse">
<stop stop-color="#B9A0FF"/>
<stop offset="1" stop-color="#855AFF"/>
</linearGradient>
</defs>
</svg>
