<svg width="172" height="124" viewBox="0 0 172 124" fill="none" xmlns="http://www.w3.org/2000/svg">
<path d="M30.918 9.013C29.818 9.013 28.8179 8.61299 28.1179 7.81299C27.9179 7.61299 27.7179 7.41298 27.6179 7.21298C27.5179 7.01298 27.3179 6.813 27.2179 6.513C27.1179 6.313 27.0179 6.01299 27.0179 5.81299C26.9179 5.51299 26.918 5.313 26.918 5.013C26.918 4.713 26.9179 4.51298 27.0179 4.21298C27.0179 4.01298 27.1179 3.71299 27.2179 3.41299C27.3179 3.21299 27.4179 2.91298 27.6179 2.71298C27.7179 2.51298 27.9179 2.31298 28.1179 2.11298C28.3179 1.91298 28.5179 1.71298 28.7179 1.61298C28.9179 1.51298 29.218 1.31298 29.418 1.21298C29.618 1.11298 29.9179 1.013 30.2179 1.013C31.5179 0.713 32.918 1.21298 33.818 2.11298C34.018 2.31298 34.118 2.51298 34.318 2.71298C34.418 2.91298 34.6179 3.21299 34.7179 3.41299C34.8179 3.61299 34.918 3.91298 34.918 4.21298C34.918 4.51298 35.0179 4.713 35.0179 5.013C35.0179 5.313 35.018 5.51299 34.918 5.81299C34.918 6.01299 34.8179 6.313 34.7179 6.513C34.6179 6.713 34.518 7.01298 34.318 7.21298C34.118 7.41298 34.018 7.61299 33.818 7.81299C33.018 8.61299 31.918 9.013 30.918 9.013Z" fill="#FFC44C"/>
<path d="M4.91797 70.3134C3.91797 70.3134 2.81792 69.9134 2.11792 69.1134C1.41792 68.3134 0.917969 67.3134 0.917969 66.3134C0.917969 65.3134 1.31792 64.2134 2.11792 63.5134C2.31792 63.3134 2.5179 63.1134 2.7179 63.0134C2.9179 62.8134 3.11797 62.7134 3.41797 62.6134C3.61797 62.5134 3.9179 62.4134 4.2179 62.4134C5.5179 62.1134 6.91799 62.6134 7.81799 63.5134C8.51799 64.3134 9.01794 65.3134 9.01794 66.3134C9.01794 67.3134 8.61799 68.4134 7.81799 69.1134C7.61799 69.3134 7.4179 69.4134 7.2179 69.6134C7.0179 69.7134 6.71794 69.9134 6.51794 70.0134C6.31794 70.1134 6.0179 70.2134 5.7179 70.2134C5.4179 70.3134 5.11797 70.3134 4.91797 70.3134Z" fill="#FFC44C"/>
<path d="M66.918 9.41281C65.918 9.41281 64.8179 9.0128 64.1179 8.2128C63.9179 8.0128 63.8179 7.81279 63.6179 7.61279C63.5179 7.41279 63.3179 7.11281 63.2179 6.91281C63.1179 6.71281 63.0179 6.41279 63.0179 6.11279C62.9179 5.81279 62.918 5.6128 62.918 5.3128C62.918 5.0128 62.9179 4.81281 63.0179 4.51281C63.1179 4.21281 63.1179 4.0128 63.2179 3.7128C63.3179 3.5128 63.4179 3.21281 63.6179 3.01281C63.8179 2.81281 63.9179 2.61281 64.1179 2.41281C64.3179 2.21281 64.5179 2.01281 64.7179 1.91281C64.9179 1.81281 65.118 1.61281 65.418 1.51281C65.618 1.41281 65.9179 1.3128 66.1179 1.3128C67.4179 1.0128 68.8179 1.51281 69.7179 2.41281C70.5179 3.11281 70.918 4.2128 70.918 5.2128C70.918 6.2128 70.5179 7.31281 69.7179 8.01281C69.5179 8.21281 69.3179 8.31281 69.1179 8.51281C68.9179 8.71281 68.618 8.81281 68.418 8.91281C68.218 9.01281 67.9179 9.11279 67.6179 9.11279C67.4179 9.31279 67.218 9.41281 66.918 9.41281Z" fill="#FFC44C"/>
<path d="M5.21875 34.3133C4.91875 34.3133 4.71882 34.3133 4.41882 34.2133C4.21882 34.1133 3.91875 34.1133 3.71875 34.0133C3.51875 33.9133 3.2188 33.8133 3.0188 33.6133C2.8188 33.4133 2.61882 33.3133 2.41882 33.1133C2.21882 32.9133 2.01882 32.7133 1.91882 32.5133C1.81882 32.3133 1.6188 32.0133 1.5188 31.8133C1.4188 31.6133 1.31885 31.3133 1.31885 31.1133C1.31885 30.8133 1.21875 30.6133 1.21875 30.3133C1.21875 30.0133 1.21885 29.8133 1.31885 29.5133C1.41885 29.3133 1.4188 29.0133 1.5188 28.7133C1.6188 28.5133 1.71882 28.2133 1.91882 28.0133C2.01882 27.8133 2.21882 27.6133 2.41882 27.4133C2.61882 27.2133 2.8188 27.0133 3.0188 26.9133C3.2188 26.8133 3.51875 26.6133 3.71875 26.5133C3.91875 26.4133 4.21882 26.3133 4.41882 26.3133C4.91882 26.2133 5.4188 26.2133 6.0188 26.3133C6.2188 26.3133 6.51885 26.4133 6.81885 26.5133C7.01885 26.6133 7.3188 26.7133 7.5188 26.9133C7.7188 27.0133 7.91877 27.2133 8.11877 27.4133C8.31877 27.6133 8.51877 27.8133 8.61877 28.0133C8.71877 28.2133 8.9188 28.5133 9.0188 28.7133C9.1188 28.9133 9.21875 29.2133 9.21875 29.5133C9.21875 29.8133 9.31885 30.0133 9.31885 30.3133C9.31885 30.6133 9.31875 30.8133 9.21875 31.1133C9.11875 31.3133 9.1188 31.6133 9.0188 31.8133C8.9188 32.0133 8.81877 32.3133 8.61877 32.5133C8.51877 32.7133 8.31877 32.9133 8.11877 33.1133C7.91877 33.3133 7.7188 33.4133 7.5188 33.6133C7.3188 33.7133 7.11885 33.9133 6.81885 34.0133C6.61885 34.1133 6.3188 34.2133 6.0188 34.2133C5.7188 34.3133 5.51875 34.3133 5.21875 34.3133Z" fill="#FFC44C"/>
<path d="M30.918 9.013C29.818 9.013 28.8179 8.61299 28.1179 7.81299C27.9179 7.61299 27.7179 7.41298 27.6179 7.21298C27.5179 7.01298 27.3179 6.813 27.2179 6.513C27.1179 6.313 27.0179 6.01299 27.0179 5.81299C26.9179 5.51299 26.918 5.313 26.918 5.013C26.918 4.713 26.9179 4.51298 27.0179 4.21298C27.0179 4.01298 27.1179 3.71299 27.2179 3.41299C27.3179 3.21299 27.4179 2.91298 27.6179 2.71298C27.7179 2.51298 27.9179 2.31298 28.1179 2.11298C28.3179 1.91298 28.5179 1.71298 28.7179 1.61298C28.9179 1.51298 29.218 1.31298 29.418 1.21298C29.618 1.11298 29.9179 1.013 30.2179 1.013C31.5179 0.713 32.918 1.21298 33.818 2.11298C34.018 2.31298 34.118 2.51298 34.318 2.71298C34.418 2.91298 34.6179 3.21299 34.7179 3.41299C34.8179 3.61299 34.918 3.91298 34.918 4.21298C34.918 4.51298 35.0179 4.713 35.0179 5.013C35.0179 5.313 35.018 5.51299 34.918 5.81299C34.918 6.01299 34.8179 6.313 34.7179 6.513C34.6179 6.713 34.518 7.01298 34.318 7.21298C34.118 7.41298 34.018 7.61299 33.818 7.81299C33.018 8.61299 31.918 9.013 30.918 9.013Z" fill="#FFC44C"/>
<path d="M4.91797 70.3134C3.91797 70.3134 2.81792 69.9134 2.11792 69.1134C1.41792 68.3134 0.917969 67.3134 0.917969 66.3134C0.917969 65.3134 1.31792 64.2134 2.11792 63.5134C2.31792 63.3134 2.5179 63.1134 2.7179 63.0134C2.9179 62.8134 3.11797 62.7134 3.41797 62.6134C3.61797 62.5134 3.9179 62.4134 4.2179 62.4134C5.5179 62.1134 6.91799 62.6134 7.81799 63.5134C8.51799 64.3134 9.01794 65.3134 9.01794 66.3134C9.01794 67.3134 8.61799 68.4134 7.81799 69.1134C7.61799 69.3134 7.4179 69.4134 7.2179 69.6134C7.0179 69.7134 6.71794 69.9134 6.51794 70.0134C6.31794 70.1134 6.0179 70.2134 5.7179 70.2134C5.4179 70.3134 5.11797 70.3134 4.91797 70.3134Z" fill="#FFC44C"/>
<path d="M66.918 9.41281C65.918 9.41281 64.8179 9.0128 64.1179 8.2128C63.9179 8.0128 63.8179 7.81279 63.6179 7.61279C63.5179 7.41279 63.3179 7.11281 63.2179 6.91281C63.1179 6.71281 63.0179 6.41279 63.0179 6.11279C62.9179 5.81279 62.918 5.6128 62.918 5.3128C62.918 5.0128 62.9179 4.81281 63.0179 4.51281C63.1179 4.21281 63.1179 4.0128 63.2179 3.7128C63.3179 3.5128 63.4179 3.21281 63.6179 3.01281C63.8179 2.81281 63.9179 2.61281 64.1179 2.41281C64.3179 2.21281 64.5179 2.01281 64.7179 1.91281C64.9179 1.81281 65.118 1.61281 65.418 1.51281C65.618 1.41281 65.9179 1.3128 66.1179 1.3128C67.4179 1.0128 68.8179 1.51281 69.7179 2.41281C70.5179 3.11281 70.918 4.2128 70.918 5.2128C70.918 6.2128 70.5179 7.31281 69.7179 8.01281C69.5179 8.21281 69.3179 8.31281 69.1179 8.51281C68.9179 8.71281 68.618 8.81281 68.418 8.91281C68.218 9.01281 67.9179 9.11279 67.6179 9.11279C67.4179 9.31279 67.218 9.41281 66.918 9.41281Z" fill="#FFC44C"/>
<path d="M5.21875 34.3133C4.91875 34.3133 4.71882 34.3133 4.41882 34.2133C4.21882 34.1133 3.91875 34.1133 3.71875 34.0133C3.51875 33.9133 3.2188 33.8133 3.0188 33.6133C2.8188 33.4133 2.61882 33.3133 2.41882 33.1133C2.21882 32.9133 2.01882 32.7133 1.91882 32.5133C1.81882 32.3133 1.6188 32.0133 1.5188 31.8133C1.4188 31.6133 1.31885 31.3133 1.31885 31.1133C1.31885 30.8133 1.21875 30.6133 1.21875 30.3133C1.21875 30.0133 1.21885 29.8133 1.31885 29.5133C1.41885 29.3133 1.4188 29.0133 1.5188 28.7133C1.6188 28.5133 1.71882 28.2133 1.91882 28.0133C2.01882 27.8133 2.21882 27.6133 2.41882 27.4133C2.61882 27.2133 2.8188 27.0133 3.0188 26.9133C3.2188 26.8133 3.51875 26.6133 3.71875 26.5133C3.91875 26.4133 4.21882 26.3133 4.41882 26.3133C4.91882 26.2133 5.4188 26.2133 6.0188 26.3133C6.2188 26.3133 6.51885 26.4133 6.81885 26.5133C7.01885 26.6133 7.3188 26.7133 7.5188 26.9133C7.7188 27.0133 7.91877 27.2133 8.11877 27.4133C8.31877 27.6133 8.51877 27.8133 8.61877 28.0133C8.71877 28.2133 8.9188 28.5133 9.0188 28.7133C9.1188 28.9133 9.21875 29.2133 9.21875 29.5133C9.21875 29.8133 9.31885 30.0133 9.31885 30.3133C9.31885 30.6133 9.31875 30.8133 9.21875 31.1133C9.11875 31.3133 9.1188 31.6133 9.0188 31.8133C8.9188 32.0133 8.81877 32.3133 8.61877 32.5133C8.51877 32.7133 8.31877 32.9133 8.11877 33.1133C7.91877 33.3133 7.7188 33.4133 7.5188 33.6133C7.3188 33.7133 7.11885 33.9133 6.81885 34.0133C6.61885 34.1133 6.3188 34.2133 6.0188 34.2133C5.7188 34.3133 5.51875 34.3133 5.21875 34.3133Z" fill="#FFC44C"/>
<path d="M35.4172 16.7125C52.8172 9.71255 72.6172 18.3126 79.7172 35.9126C86.8172 53.5126 78.5172 73.5126 61.1172 80.5126C43.7172 87.5126 23.9173 78.9126 16.8173 61.3126C9.81726 43.7126 18.1172 23.7125 35.4172 16.7125Z" fill="url(#paint0_linear)"/>
<path d="M56.1178 123.113C56.0178 123.113 56.0178 123.113 55.9178 123.113C37.6178 122.313 23.4178 106.813 24.2178 88.5127C25.0178 70.2127 40.5179 56.0127 58.8179 56.8127C58.8179 56.8127 58.8178 56.8127 58.9178 56.8127C59.8178 47.2127 64.1178 38.5127 71.2178 32.0127C78.8178 25.1127 88.6178 21.5127 98.9178 22.0127C117.918 22.8127 133.218 37.3127 135.418 55.8127C136.918 55.7127 138.418 55.6127 139.918 55.7127C158.218 56.5127 172.418 72.0127 171.618 90.3127C171.218 99.2127 167.418 107.313 160.818 113.313C154.318 119.313 145.818 122.313 137.118 122.013L56.1178 123.113C56.2178 123.113 56.1178 123.113 56.1178 123.113ZM57.4178 64.8127C44.0178 64.8127 32.9179 75.4127 32.3179 88.9127C31.7179 102.713 42.4178 114.513 56.2178 115.213L137.118 114.013C137.218 114.013 137.318 114.013 137.318 114.013C144.018 114.313 150.518 112.013 155.418 107.413C160.418 102.913 163.318 96.7127 163.618 89.9127C164.218 76.0127 153.418 64.2127 139.618 63.6127C137.318 63.5127 134.918 63.7127 132.718 64.3127C131.518 64.6127 130.318 64.3127 129.318 63.5127C128.318 62.7127 127.818 61.6127 127.818 60.4127C127.818 44.1127 115.018 30.7127 98.7178 30.0127C82.2178 29.3127 68.2178 41.8127 67.0178 58.2127C75.2178 60.6127 82.2178 66.1127 86.5178 73.8127C87.6178 75.7127 86.9178 78.2127 85.0178 79.2127C83.1178 80.3127 80.6178 79.6127 79.6178 77.7127C75.3178 70.0127 67.5178 65.2127 58.7178 64.8127C58.2178 64.8127 57.8178 64.8127 57.4178 64.8127Z" fill="#2F2F2F"/>
<defs>
<linearGradient id="paint0_linear" x1="61.2416" y1="80.4974" x2="35.4717" y2="16.7146" gradientUnits="userSpaceOnUse">
<stop stop-color="#FFC14C"/>
<stop offset="1" stop-color="#FFD04D"/>
</linearGradient>
</defs>
</svg>
