<svg width="162" height="120" viewBox="0 0 162 120" fill="none" xmlns="http://www.w3.org/2000/svg">
<path d="M161.299 44.3002C157.299 64.3002 137.799 77.3002 117.799 73.3002C97.7992 69.3002 84.7992 49.8002 88.7992 29.8002C92.7992 9.80022 112.299 -3.19978 132.299 0.800223C133.899 1.10022 135.499 1.50022 136.999 2.10022C128.299 14.0002 130.899 30.7002 142.899 39.4002C148.199 43.1002 154.799 44.9002 161.299 44.3002Z" fill="url(#paint0_linear)"/>
<path d="M36.4996 119.401C36.0996 119.401 35.5996 119.401 35.1996 119.401C16.9996 118.701 2.69964 103.301 3.39964 85.0006C4.19964 66.8006 19.6996 52.6006 37.8996 53.4006C37.8996 53.4006 37.8996 53.4006 37.9996 53.4006C39.8996 33.2006 57.3996 17.8006 77.7996 18.7006C96.7996 19.5006 111.9 33.9006 114.1 52.3006C115.6 52.2006 117.1 52.1006 118.5 52.2006C136.7 53.0006 150.9 68.5006 150.1 86.7006C149.6 96.9006 144.6 106.101 136.4 112.101C127.7 118.401 116.9 118.501 107.5 118.501H105.5C97.7996 118.601 90.0996 118.701 82.3996 118.801C67.2996 119.101 51.7996 119.301 36.4996 119.401ZM36.3996 61.4006C23.0996 61.4006 11.9996 71.9006 11.3996 85.3006C10.8996 99.1006 21.6996 110.801 35.5996 111.301C35.8996 111.301 36.1996 111.301 36.5996 111.301C51.7996 111.201 67.2996 111.001 82.2996 110.801C89.9996 110.701 97.6996 110.601 105.4 110.501H107.5C116.2 110.401 125.1 110.401 131.8 105.601C138.1 101.101 141.9 94.1006 142.2 86.3006C142.8 72.5006 132.1 60.8006 118.3 60.2006C116 60.1006 113.7 60.3006 111.4 60.9006C110.2 61.2006 109 60.9006 108 60.1006C107 59.3006 106.5 58.2006 106.5 57.0006C106.5 40.7006 93.7996 27.4006 77.5996 26.7006C60.9996 26.0006 47.0996 38.5006 45.8996 54.8006C53.9996 57.2006 60.9996 62.7006 65.2996 70.3006C66.3996 72.2006 65.6996 74.7006 63.7996 75.7006C61.8996 76.8006 59.3996 76.1006 58.3996 74.2006C54.0996 66.6006 46.3996 61.8006 37.5996 61.4006C37.1996 61.4006 36.7996 61.4006 36.3996 61.4006Z" fill="#2F2F2F"/>
<path d="M4 39.1C2.9 39.1 1.9 38.7 1.2 37.9C1 37.7 0.8 37.5 0.7 37.3C0.6 37.1 0.4 36.8 0.3 36.6C0.2 36.4 0.0999999 36.1 0.0999999 35.8C0.0999999 35.5 0 35.3 0 35C0 33.9 0.4 32.9 1.2 32.2C2 31.4 3 31 4 31C5 31 6.1 31.4 6.8 32.2C7.6 33.1 8 34.1 8 35.1C8 35.4 8 35.6 7.9 35.9C7.8 36.1 7.8 36.4 7.7 36.7C7.6 36.9 7.5 37.2 7.3 37.4C7.2 37.6 7 37.8 6.8 38C6.1 38.7 5 39.1 4 39.1Z" fill="#9975FF"/>
<path d="M22.5996 42.3998C21.5996 42.3998 20.4996 41.9998 19.7996 41.1998C19.0996 40.4998 18.5996 39.3998 18.5996 38.3998C18.5996 38.0998 18.5996 37.8998 18.6996 37.5998C18.6996 37.2998 18.7996 37.0998 18.8996 36.7998C18.9996 36.5998 19.0996 36.2998 19.2996 36.0998C19.3996 35.8998 19.5996 35.6998 19.7996 35.4998C20.5996 34.6998 21.5996 34.2998 22.5996 34.2998C23.5996 34.2998 24.6996 34.6998 25.3996 35.4998C25.5996 35.6998 25.7996 35.8998 25.8996 36.0998C26.0996 36.2998 26.1996 36.4998 26.2996 36.7998C26.3996 36.9998 26.4996 37.2998 26.4996 37.5998C26.5996 37.7998 26.5996 38.0998 26.5996 38.3998C26.5996 39.4998 26.1996 40.4998 25.3996 41.1998C24.5996 41.9998 23.5996 42.3998 22.5996 42.3998Z" fill="#2F2F2F"/>
<path d="M33 20.9007C32 20.9007 30.9 20.5007 30.2 19.7007C29.4 19.0007 29 18.0007 29 16.9007C29 16.6007 29 16.4007 29.1 16.1007C29.1 15.9007 29.2 15.6007 29.3 15.3007C29.4 15.1007 29.5 14.8007 29.7 14.6007C29.8 14.4007 30 14.2007 30.2 14.0007C30.4 13.8007 30.6 13.7007 30.8 13.5007C31 13.4007 31.2 13.2007 31.5 13.1007C31.7 13.0007 32 12.9007 32.3 12.9007C33.6 12.6007 35 13.1007 35.9 14.0007C36.1 14.2007 36.3 14.4007 36.4 14.6007C36.5 14.8007 36.7 15.1007 36.8 15.3007C36.9 15.5007 37 15.8007 37 16.1007C37 16.4007 37.1 16.6007 37.1 16.9007C37.1 18.0007 36.7 19.0007 35.9 19.7007C35.1 20.5007 34.1 20.9007 33 20.9007Z" fill="#9975FF"/>
<defs>
<linearGradient id="paint0_linear" x1="107.666" y1="4.23136" x2="136.566" y2="72.3148" gradientUnits="userSpaceOnUse">
<stop stop-color="#B9A0FF"/>
<stop offset="1" stop-color="#855AFF"/>
</linearGradient>
</defs>
</svg>
