<?xml version="1.0" encoding="utf-8"?>
<!-- Generator: Adobe Illustrator 21.1.0, SVG Export Plug-In . SVG Version: 6.00 Build 0)  -->
<svg version="1.1" id="Layer_1" xmlns="http://www.w3.org/2000/svg" xmlns:xlink="http://www.w3.org/1999/xlink" x="0px" y="0px"
	 viewBox="0 0 180 110" style="enable-background:new 0 0 180 110;" xml:space="preserve">
<style type="text/css">
	.st0{fill:#2F2F2F;}
</style>
<path class="st0" d="M32.2,109.5c-0.1,0-0.2,0-0.2,0C13.3,108.4-1,92.4,0.1,73.8c0.5-9,4.5-17.3,11.3-23.3c6.7-6,15.4-9.1,24.5-8.5
	c0.1,0,0.1,0,0.2,0c2-20.8,20.1-36.4,41.1-35.2c19.4,1.1,34.8,16.1,36.8,35c1.6-0.1,3.1-0.1,4.7-0.1c18.6,1.1,32.9,17.1,31.9,35.7
	c-1.1,18.6-17,32.9-35.6,31.9L32.2,109.5z M33.8,49.9c-6.4,0-12.4,2.3-17.2,6.6C11.5,61,8.4,67.3,8,74.2
	c-0.8,14.2,10.1,26.4,24.3,27.3l82.8-0.2c0.1,0,0.2,0,0.2,0c14.2,0.8,26.5-10.1,27.3-24.3c0.8-14.2-10.1-26.5-24.3-27.3
	c-2.4-0.1-4.8,0.1-7.1,0.6c-1.2,0.3-2.4,0-3.4-0.8s-1.5-1.9-1.5-3.2c0.1-16.7-12.8-30.6-29.6-31.5c-16.9-1-31.5,11.8-32.9,28.5
	C52,45.8,59,51.4,63.4,59.1c1.1,1.9,0.4,4.4-1.5,5.4c-1.9,1.1-4.4,0.4-5.4-1.5c-4.3-7.7-12.2-12.7-21.1-13.2
	C34.8,49.9,34.3,49.9,33.8,49.9z"/>
</svg>
