<svg width="180" height="110" viewBox="0 0 180 110" fill="none" xmlns="http://www.w3.org/2000/svg">
<path d="M107.004 42.8995C102.904 35.4995 95.2037 30.6995 86.8037 30.2995C73.1037 29.4995 61.4037 39.8995 60.6037 53.5995C59.9037 67.1995 70.3037 78.9995 84.0037 79.6995L152.804 79.4995C166.504 80.2995 178.204 69.7995 179.004 56.1995C179.804 42.5995 169.304 30.7995 155.604 30.0995C153.304 29.9995 151.004 30.1995 148.804 30.6995C149.004 14.9995 136.804 1.89952 121.204 0.999523C105.104 0.099523 91.2037 12.3995 90.3037 28.5995L90.2037 30.5995" fill="#E8E8F2"/>
<path d="M32.2005 109.499C32.1005 109.499 32.0005 109.499 32.0005 109.499C13.3005 108.399 -0.999545 92.3992 0.100455 73.7992C0.600455 64.7992 4.60046 56.4992 11.4005 50.4992C18.1005 44.4992 26.8005 41.3992 35.9005 41.9992C36.0005 41.9992 36.0005 41.9992 36.1005 41.9992C38.1005 21.1992 56.2005 5.5992 77.2005 6.7992C96.6005 7.8992 112 22.8992 114 41.7992C115.6 41.6992 117.1 41.6992 118.7 41.6992C137.3 42.7992 151.6 58.7992 150.6 77.3992C149.5 95.9992 133.6 110.299 115 109.299L32.2005 109.499ZM33.8005 49.8992C27.4005 49.8992 21.4005 52.1992 16.6005 56.4992C11.5005 60.9992 8.40046 67.2992 8.00046 74.1992C7.20046 88.3992 18.1005 100.599 32.3005 101.499L115.1 101.299C115.2 101.299 115.3 101.299 115.3 101.299C129.5 102.099 141.8 91.1992 142.6 76.9992C143.4 62.7992 132.5 50.4992 118.3 49.6992C115.9 49.5992 113.5 49.7992 111.2 50.2992C110 50.5992 108.8 50.2992 107.8 49.4992C106.8 48.6992 106.3 47.5992 106.3 46.2992C106.4 29.5992 93.5005 15.6992 76.7005 14.7992C59.8005 13.7992 45.2005 26.5992 43.8005 43.2992C52.0005 45.7992 59.0005 51.3992 63.4005 59.0992C64.5005 60.9992 63.8005 63.4992 61.9005 64.4992C60.0005 65.5992 57.5005 64.8992 56.5005 62.9992C52.2005 55.2992 44.3005 50.2992 35.4005 49.7992C34.8005 49.8992 34.3005 49.8992 33.8005 49.8992Z" fill="#2F2F2F"/>
</svg>
