<svg width="149" height="128" viewBox="0 0 149 128" fill="none" xmlns="http://www.w3.org/2000/svg">
<path d="M127.7 98.7C126.2 98.7 124.7 97.8 124.1 96.4C123.2 94.4 124.1 92 126.1 91.1C134.8 87.1 140.5 78.8 140.9 69.2C141.5 55.3 130.7 43.4 116.8 42.8C114.5 42.7 112.1 42.9 109.8 43.5C108.6 43.8 107.4 43.5 106.4 42.7C105.4 41.9 104.9 40.8 104.9 39.6C104.8 23.2 91.9999 9.79998 75.5999 8.99998C58.7999 8.29998 44.4999 21.4 43.6999 38.2L43.5999 40.6C43.4999 42.8 41.5999 44.5 39.3999 44.4C37.1999 44.3 35.4999 42.4 35.5999 40.2L35.6999 37.8C36.6999 16.6 54.6999 0.0999804 75.9999 0.99998C95.0999 1.89998 110.4 16.4 112.6 34.9C114.1 34.8 115.6 34.7 117.1 34.8C135.4 35.6 149.7 51.2 148.9 69.5C148.3 82.1 140.9 93.1 129.4 98.3C128.8 98.6 128.3 98.7 127.7 98.7Z" fill="#2F2F2F"/>
<path d="M16.8005 96.8C16.0005 96.8 15.1004 96.5 14.4004 96C5.60045 89.4 0.50045 78.8 1.00045 67.8C1.90045 49.4 17.4004 35.2 35.8004 36C47.4005 36.5 57.7005 42.9 63.4005 53C64.5005 54.9 63.8005 57.4 61.9005 58.4C60.0005 59.5 57.5005 58.8 56.5005 56.9C52.0005 49.2 44.2004 44.4 35.4004 44C21.5004 43.4 9.60045 54.2 9.00045 68.1C8.60045 76.5 12.4004 84.5 19.2004 89.5C21.0004 90.8 21.3004 93.3 20.0005 95.1C19.3004 96.2 18.1005 96.8 16.8005 96.8Z" fill="#2F2F2F"/>
<path d="M92.9003 123C91.9003 123 90.8003 122.6 90.1003 121.8C88.5003 120.2 88.6003 117.7 90.1003 116.1L109.6 96.9997C111.2 95.3997 113.7 95.4997 115.3 96.9997C116.9 98.5997 116.8 101.1 115.3 102.7L95.9003 121.9C95.0003 122.7 94.0003 123 92.9003 123Z" fill="#57AAFF"/>
<path d="M23.8995 117C22.8995 117 21.7995 116.6 20.9995 115.8C19.4995 114.2 19.4995 111.7 21.0995 110.1L40.9995 90.8003C42.5995 89.3003 45.0995 89.3003 46.6995 90.9003C48.1995 92.5003 48.1995 95.0003 46.5995 96.6003L26.6995 116C25.9995 116.7 24.9995 117 23.8995 117Z" fill="#57AAFF"/>
<path d="M92.8995 97.0995C91.8995 97.0995 90.8995 96.6995 90.0995 95.9995C88.4995 94.4995 88.4995 91.8995 89.9995 90.2995L104.7 75.0995C106.2 73.4995 108.8 73.4995 110.4 74.9995C112 76.4995 112 79.0995 110.5 80.6995L95.7995 95.7995C94.9995 96.5995 93.8995 97.0995 92.8995 97.0995Z" fill="#57AAFF"/>
<path d="M60.8995 127.4C59.8995 127.4 58.8995 127 58.0995 126.3C56.4995 124.8 56.4995 122.2 57.9995 120.6L72.6995 105.4C74.1995 103.8 76.7995 103.8 78.3995 105.3C79.9995 106.8 79.9995 109.4 78.4995 111L63.7995 126.2C62.9995 127 61.9995 127.4 60.8995 127.4Z" fill="#57AAFF"/>
<path d="M59.2999 101.8C58.2999 101.8 57.2999 101.4 56.4999 100.7C54.8999 99.1997 54.8999 96.5997 56.3999 94.9997L71.0999 79.7997C72.5999 78.1997 75.1999 78.1997 76.7999 79.6997C78.3999 81.1997 78.3999 83.7997 76.8999 85.3997L62.0999 100.6C61.2999 101.4 60.2999 101.8 59.2999 101.8Z" fill="#57AAFF"/>
</svg>
