<svg width="170" height="144" viewBox="0 0 170 144" fill="none" xmlns="http://www.w3.org/2000/svg">
<path d="M47.4808 9.00128C47.1808 9.00128 46.9809 9.00127 46.6809 8.90127C46.3809 8.90127 46.1809 8.80129 45.8809 8.70129C45.6809 8.60129 45.3809 8.50127 45.1809 8.30127C44.9809 8.10127 44.7808 8.00127 44.5808 7.80127C44.3808 7.60127 44.2808 7.40129 44.0808 7.20129C43.9808 7.00129 43.7809 6.70128 43.6809 6.50128C43.5809 6.30128 43.4808 6.00129 43.4808 5.70129C43.4808 5.40129 43.3809 5.20127 43.3809 4.90127C43.3809 3.80127 43.7808 2.80128 44.5808 2.10128C44.7808 1.90128 44.9809 1.70128 45.1809 1.60128C45.3809 1.50128 45.6809 1.30129 45.8809 1.20129C46.0809 1.10129 46.3809 1.00128 46.6809 1.00128C47.9809 0.701279 49.3809 1.20128 50.2809 2.10128C50.9809 2.80128 51.4808 3.90127 51.4808 4.90127C51.4808 5.20127 51.4809 5.40129 51.3809 5.70129C51.3809 6.00129 51.2809 6.20128 51.1809 6.50128C51.0809 6.70128 50.9809 7.00129 50.7809 7.20129C50.6809 7.40129 50.4809 7.60127 50.2809 7.80127C49.5809 8.60127 48.5808 9.00128 47.4808 9.00128Z" fill="#FFC44C"/>
<path d="M4.98083 51.5008C4.68084 51.5008 4.48091 51.5008 4.18091 51.4008C3.88091 51.4008 3.68086 51.3008 3.38086 51.2008C3.18086 51.1008 2.88091 51.0008 2.68091 50.8008C2.48091 50.7008 2.28081 50.5008 2.08081 50.3008C1.88081 50.1008 1.68081 49.9008 1.58081 49.7008C1.48081 49.5008 1.28091 49.2008 1.18091 49.0008C1.08091 48.8008 0.980835 48.5008 0.980835 48.2008C0.980835 47.9008 0.880859 47.7008 0.880859 47.4008C0.880859 47.1008 0.880835 46.9008 0.980835 46.6008C0.980835 46.3008 1.08091 46.1008 1.18091 45.8008C1.28091 45.6008 1.38081 45.3008 1.58081 45.1008C1.68081 44.9008 1.88081 44.7008 2.08081 44.5008C2.78081 43.8008 3.88086 43.3008 4.88086 43.3008C5.88086 43.3008 6.98091 43.7008 7.68091 44.5008C7.88091 44.7008 7.98091 44.9008 8.18091 45.1008C8.28091 45.3008 8.48081 45.6008 8.58081 45.8008C8.68081 46.0008 8.78088 46.3008 8.78088 46.6008C8.78088 46.9008 8.88086 47.1008 8.88086 47.4008C8.88086 47.7008 8.88088 47.9008 8.78088 48.2008C8.68088 48.5008 8.68081 48.7008 8.58081 49.0008C8.48081 49.2008 8.38091 49.5008 8.18091 49.7008C8.08091 49.9008 7.88091 50.1008 7.68091 50.3008C7.48091 50.5008 7.28081 50.7008 7.08081 50.8008C6.88081 50.9008 6.58086 51.1008 6.38086 51.2008C6.18086 51.3008 5.88081 51.4008 5.58081 51.4008C5.48081 51.5008 5.28084 51.5008 4.98083 51.5008Z" fill="#FFC44C"/>
<path d="M77.5804 21.4012C77.2804 21.4012 77.0805 21.4012 76.7805 21.3012C76.4805 21.3012 76.2805 21.2012 75.9805 21.1012C75.7805 21.0012 75.4805 20.9012 75.2805 20.7012C75.0805 20.6012 74.8805 20.4012 74.6805 20.2012C74.4805 20.0012 74.3805 19.8012 74.1805 19.6012C74.0805 19.4012 73.8805 19.2012 73.7805 18.9012C73.6805 18.7012 73.5804 18.4012 73.5804 18.2012C73.4804 17.9012 73.4805 17.7012 73.4805 17.4012C73.4805 17.1012 73.4804 16.9012 73.5804 16.6012C73.5804 16.4012 73.6805 16.1012 73.7805 15.8012C73.8805 15.6012 73.9805 15.3012 74.1805 15.1012C74.3805 14.9012 74.4805 14.7012 74.6805 14.5012C74.8805 14.3012 75.0805 14.1012 75.2805 14.0012C75.4805 13.8012 75.6805 13.7012 75.9805 13.6012C76.2805 13.5012 76.4805 13.4012 76.7805 13.4012C77.2805 13.3012 77.7805 13.3012 78.3805 13.4012C78.5805 13.4012 78.8805 13.5012 79.1805 13.6012C79.3805 13.7012 79.6805 13.8012 79.8805 14.0012C80.0805 14.1012 80.2805 14.3012 80.4805 14.5012C81.1805 15.2012 81.6805 16.3012 81.6805 17.3012C81.6805 17.6012 81.6804 17.8012 81.5804 18.1012C81.5804 18.3012 81.4805 18.6012 81.3805 18.8012C81.2805 19.0012 81.1805 19.3012 80.9805 19.5012C80.8805 19.7012 80.6805 19.9012 80.4805 20.1012C79.6805 21.0012 78.6804 21.4012 77.5804 21.4012Z" fill="#FFC44C"/>
<path d="M17.4805 21.4008C16.3805 21.4008 15.3805 21.0008 14.6805 20.2008C14.4805 20.0008 14.2805 19.8008 14.1805 19.6008C13.9805 19.4008 13.8805 19.1008 13.7805 18.9008C13.6805 18.7008 13.5804 18.4008 13.5804 18.1008C13.4804 17.8008 13.4805 17.6008 13.4805 17.3008C13.4805 16.2008 13.8805 15.2008 14.6805 14.5008C15.3805 13.7008 16.4805 13.3008 17.4805 13.3008C18.5805 13.3008 19.5805 13.7008 20.2805 14.5008C21.0805 15.2008 21.4805 16.3008 21.4805 17.3008C21.4805 17.6008 21.4805 17.8008 21.3805 18.1008C21.2805 18.3008 21.2805 18.6008 21.1805 18.9008C21.0805 19.1008 20.9805 19.4008 20.7805 19.6008C20.5805 19.8008 20.4805 20.0008 20.2805 20.2008C19.5805 21.0008 18.4805 21.4008 17.4805 21.4008Z" fill="#FFC44C"/>
<path d="M47.4808 9.00128C47.1808 9.00128 46.9809 9.00127 46.6809 8.90127C46.3809 8.90127 46.1809 8.80129 45.8809 8.70129C45.6809 8.60129 45.3809 8.50127 45.1809 8.30127C44.9809 8.10127 44.7808 8.00127 44.5808 7.80127C44.3808 7.60127 44.2808 7.40129 44.0808 7.20129C43.9808 7.00129 43.7809 6.70128 43.6809 6.50128C43.5809 6.30128 43.4808 6.00129 43.4808 5.70129C43.4808 5.40129 43.3809 5.20127 43.3809 4.90127C43.3809 3.80127 43.7808 2.80128 44.5808 2.10128C44.7808 1.90128 44.9809 1.70128 45.1809 1.60128C45.3809 1.50128 45.6809 1.30129 45.8809 1.20129C46.0809 1.10129 46.3809 1.00128 46.6809 1.00128C47.9809 0.701279 49.3809 1.20128 50.2809 2.10128C50.9809 2.80128 51.4808 3.90127 51.4808 4.90127C51.4808 5.20127 51.4809 5.40129 51.3809 5.70129C51.3809 6.00129 51.2809 6.20128 51.1809 6.50128C51.0809 6.70128 50.9809 7.00129 50.7809 7.20129C50.6809 7.40129 50.4809 7.60127 50.2809 7.80127C49.5809 8.60127 48.5808 9.00128 47.4808 9.00128Z" fill="#FFC44C"/>
<path d="M4.98083 51.5008C4.68084 51.5008 4.48091 51.5008 4.18091 51.4008C3.88091 51.4008 3.68086 51.3008 3.38086 51.2008C3.18086 51.1008 2.88091 51.0008 2.68091 50.8008C2.48091 50.7008 2.28081 50.5008 2.08081 50.3008C1.88081 50.1008 1.68081 49.9008 1.58081 49.7008C1.48081 49.5008 1.28091 49.2008 1.18091 49.0008C1.08091 48.8008 0.980835 48.5008 0.980835 48.2008C0.980835 47.9008 0.880859 47.7008 0.880859 47.4008C0.880859 47.1008 0.880835 46.9008 0.980835 46.6008C0.980835 46.3008 1.08091 46.1008 1.18091 45.8008C1.28091 45.6008 1.38081 45.3008 1.58081 45.1008C1.68081 44.9008 1.88081 44.7008 2.08081 44.5008C2.78081 43.8008 3.88086 43.3008 4.88086 43.3008C5.88086 43.3008 6.98091 43.7008 7.68091 44.5008C7.88091 44.7008 7.98091 44.9008 8.18091 45.1008C8.28091 45.3008 8.48081 45.6008 8.58081 45.8008C8.68081 46.0008 8.78088 46.3008 8.78088 46.6008C8.78088 46.9008 8.88086 47.1008 8.88086 47.4008C8.88086 47.7008 8.88088 47.9008 8.78088 48.2008C8.68088 48.5008 8.68081 48.7008 8.58081 49.0008C8.48081 49.2008 8.38091 49.5008 8.18091 49.7008C8.08091 49.9008 7.88091 50.1008 7.68091 50.3008C7.48091 50.5008 7.28081 50.7008 7.08081 50.8008C6.88081 50.9008 6.58086 51.1008 6.38086 51.2008C6.18086 51.3008 5.88081 51.4008 5.58081 51.4008C5.48081 51.5008 5.28084 51.5008 4.98083 51.5008Z" fill="#FFC44C"/>
<path d="M77.5804 21.4012C77.2804 21.4012 77.0805 21.4012 76.7805 21.3012C76.4805 21.3012 76.2805 21.2012 75.9805 21.1012C75.7805 21.0012 75.4805 20.9012 75.2805 20.7012C75.0805 20.6012 74.8805 20.4012 74.6805 20.2012C74.4805 20.0012 74.3805 19.8012 74.1805 19.6012C74.0805 19.4012 73.8805 19.2012 73.7805 18.9012C73.6805 18.7012 73.5804 18.4012 73.5804 18.2012C73.4804 17.9012 73.4805 17.7012 73.4805 17.4012C73.4805 17.1012 73.4804 16.9012 73.5804 16.6012C73.5804 16.4012 73.6805 16.1012 73.7805 15.8012C73.8805 15.6012 73.9805 15.3012 74.1805 15.1012C74.3805 14.9012 74.4805 14.7012 74.6805 14.5012C74.8805 14.3012 75.0805 14.1012 75.2805 14.0012C75.4805 13.8012 75.6805 13.7012 75.9805 13.6012C76.2805 13.5012 76.4805 13.4012 76.7805 13.4012C77.2805 13.3012 77.7805 13.3012 78.3805 13.4012C78.5805 13.4012 78.8805 13.5012 79.1805 13.6012C79.3805 13.7012 79.6805 13.8012 79.8805 14.0012C80.0805 14.1012 80.2805 14.3012 80.4805 14.5012C81.1805 15.2012 81.6805 16.3012 81.6805 17.3012C81.6805 17.6012 81.6804 17.8012 81.5804 18.1012C81.5804 18.3012 81.4805 18.6012 81.3805 18.8012C81.2805 19.0012 81.1805 19.3012 80.9805 19.5012C80.8805 19.7012 80.6805 19.9012 80.4805 20.1012C79.6805 21.0012 78.6804 21.4012 77.5804 21.4012Z" fill="#FFC44C"/>
<path d="M17.4805 21.4008C16.3805 21.4008 15.3805 21.0008 14.6805 20.2008C14.4805 20.0008 14.2805 19.8008 14.1805 19.6008C13.9805 19.4008 13.8805 19.1008 13.7805 18.9008C13.6805 18.7008 13.5804 18.4008 13.5804 18.1008C13.4804 17.8008 13.4805 17.6008 13.4805 17.3008C13.4805 16.2008 13.8805 15.2008 14.6805 14.5008C15.3805 13.7008 16.4805 13.3008 17.4805 13.3008C18.5805 13.3008 19.5805 13.7008 20.2805 14.5008C21.0805 15.2008 21.4805 16.3008 21.4805 17.3008C21.4805 17.6008 21.4805 17.8008 21.3805 18.1008C21.2805 18.3008 21.2805 18.6008 21.1805 18.9008C21.0805 19.1008 20.9805 19.4008 20.7805 19.6008C20.5805 19.8008 20.4805 20.0008 20.2805 20.2008C19.5805 21.0008 18.4805 21.4008 17.4805 21.4008Z" fill="#FFC44C"/>
<path d="M12.4805 80.6014C12.1805 80.6014 11.9805 80.6014 11.6805 80.5014C11.4805 80.5014 11.1805 80.4013 10.9805 80.3013C10.7805 80.2013 10.4805 80.1014 10.2805 79.9014C10.0805 79.8014 9.88054 79.6014 9.68054 79.4014C9.48054 79.2014 9.28054 79.0013 9.18054 78.8013C8.98054 78.6013 8.88052 78.3014 8.78052 78.1014C8.68052 77.9014 8.58044 77.6013 8.58044 77.3013C8.48044 77.0013 8.48047 76.8014 8.48047 76.5014C8.48047 75.4014 8.88054 74.4014 9.68054 73.7014C9.88054 73.5014 10.0805 73.4014 10.2805 73.2014C10.4805 73.1014 10.7805 72.9013 10.9805 72.8013C11.1805 72.7013 11.4805 72.6014 11.7805 72.6014C12.2805 72.5014 12.7805 72.5014 13.3805 72.6014C13.5805 72.6014 13.8804 72.7013 14.0804 72.8013C14.2804 72.9013 14.5805 73.0014 14.7805 73.2014C14.9805 73.4014 15.1805 73.5014 15.3805 73.7014C16.1805 74.5014 16.5804 75.5014 16.5804 76.5014C16.5804 76.8014 16.5805 77.0013 16.4805 77.3013C16.4805 77.5013 16.3805 77.8014 16.2805 78.1014C16.1805 78.3014 16.0805 78.6013 15.8805 78.8013C15.6805 79.0013 15.5805 79.2014 15.3805 79.4014C15.1805 79.6014 14.9805 79.7014 14.7805 79.9014C14.5805 80.0014 14.2804 80.2013 14.0804 80.3013C13.8804 80.4013 13.5805 80.5014 13.3805 80.5014C12.9805 80.6014 12.6805 80.6014 12.4805 80.6014Z" fill="#FFC44C"/>
<path d="M47.3812 78.5008C64.2811 78.5008 77.9812 64.5768 77.9812 47.4008C77.9812 30.2247 64.2811 16.3008 47.3812 16.3008C30.4813 16.3008 16.7812 30.2247 16.7812 47.4008C16.7812 64.5768 30.4813 78.5008 47.3812 78.5008Z" fill="url(#paint0_linear)"/>
<path d="M138.156 58.2636C136.756 58.1637 135.256 58.2636 133.856 58.3636C131.656 40.3636 116.856 26.3636 98.3564 25.5636C88.3564 25.0636 78.7564 28.5636 71.3564 35.3636C64.4564 41.6637 60.2564 50.1637 59.3564 59.4636C41.5564 58.6637 26.3564 72.4636 25.5564 90.2636C25.0564 101.064 29.9564 111.264 38.6564 117.764C39.3564 118.264 40.1564 118.564 41.0564 118.564C42.2564 118.564 43.4564 117.964 44.2564 116.964C45.5564 115.164 45.1564 112.664 43.4564 111.364C36.8564 106.464 33.2564 98.7636 33.5564 90.6637C34.1564 77.2636 45.5564 66.7637 58.9564 67.3637C67.4564 67.7637 74.9564 72.3637 79.1564 79.8637C80.2564 81.7637 82.6564 82.4636 84.5564 81.3637C86.4564 80.2637 87.1564 77.8637 86.0564 75.9636C81.8564 68.4636 75.0564 63.1637 67.1564 60.7636C68.4564 44.9636 82.0564 32.7636 97.9564 33.4636C113.756 34.1636 126.156 47.1637 126.156 62.9636C126.156 64.1637 126.756 65.3636 127.656 66.0636C128.656 66.8636 129.856 67.0637 131.056 66.8637C133.256 66.3637 135.556 66.1637 137.756 66.2636C151.156 66.8636 161.656 78.2636 161.056 91.6637C160.656 100.864 155.156 108.964 146.856 112.764C144.856 113.664 143.956 116.064 144.856 118.064C145.556 119.564 146.956 120.364 148.456 120.364C149.056 120.364 149.556 120.264 150.156 119.964C161.256 114.864 168.556 104.164 169.056 91.9636C169.856 74.1636 155.956 59.0636 138.156 58.2636Z" fill="#2F2F2F"/>
<path d="M113.156 140.964C112.156 140.964 111.056 140.564 110.356 139.764C108.756 138.164 108.756 135.664 110.356 134.064L130.856 113.664C132.456 112.064 134.956 112.164 136.556 113.664C138.156 115.264 138.156 117.764 136.556 119.364L116.056 139.764C115.156 140.564 114.156 140.964 113.156 140.964Z" fill="#57AAFF"/>
<path d="M47.457 134.463C46.457 134.463 45.457 134.063 44.657 133.263C43.057 131.663 43.057 129.163 44.657 127.563L64.357 107.563C65.957 105.963 68.457 105.963 70.057 107.563C71.657 109.163 71.657 111.663 70.057 113.263L50.357 133.263C49.557 134.063 48.557 134.463 47.457 134.463Z" fill="#57AAFF"/>
<path d="M114.757 113.964C113.757 113.964 112.757 113.564 111.957 112.864C110.357 111.364 110.357 108.764 111.857 107.164L126.057 92.4638C127.557 90.8638 130.157 90.8638 131.757 92.3638C133.357 93.8638 133.357 96.4638 131.857 98.0638L117.657 112.764C116.857 113.564 115.757 113.964 114.757 113.964Z" fill="#57AAFF"/>
<path d="M83.7569 143.363C82.7569 143.363 81.7569 142.963 80.9569 142.263C79.3569 140.763 79.3569 138.163 80.8569 136.563L95.0569 121.863C96.5569 120.263 99.1569 120.263 100.757 121.763C102.357 123.263 102.357 125.863 100.857 127.463L86.6569 142.163C85.8569 142.963 84.8569 143.363 83.7569 143.363Z" fill="#57AAFF"/>
<path d="M82.1573 118.563C81.1573 118.563 80.1573 118.163 79.3573 117.463C77.7573 115.963 77.7573 113.363 79.2573 111.763L93.4573 97.0634C94.9573 95.4634 97.5573 95.4634 99.1573 96.9634C100.757 98.4634 100.757 101.063 99.2573 102.663L85.0573 117.363C84.2573 118.163 83.1573 118.563 82.1573 118.563Z" fill="#57AAFF"/>
<defs>
<linearGradient id="paint0_linear" x1="47.3903" y1="78.4452" x2="47.3903" y2="16.3032" gradientUnits="userSpaceOnUse">
<stop stop-color="#FFC14C"/>
<stop offset="1" stop-color="#FFD04D"/>
</linearGradient>
</defs>
</svg>
