<svg width="158" height="139" viewBox="0 0 158 139" fill="none" xmlns="http://www.w3.org/2000/svg">
<path d="M157.4 48.6995C152.4 69.5995 131.5 82.3995 110.7 77.4995C89.7998 72.4995 76.9999 51.5995 81.8999 30.7995C86.8999 9.89946 107.8 -2.90054 128.6 1.99946C130.3 2.39946 131.9 2.89946 133.5 3.49946C124 15.6995 126.1 33.2995 138.3 42.7995C143.7 46.9995 150.5 49.0995 157.4 48.6995Z" fill="url(#paint0_linear)"/>
<path d="M131.2 105.799C130.4 105.799 129.5 105.499 128.8 104.999C127 103.699 126.7 101.199 128 99.3991C130.8 95.5991 132.4 91.0991 132.6 86.3991C133.2 73.3991 123.1 62.3992 110.1 61.7992C107.9 61.6992 105.7 61.8992 103.6 62.3992C102.4 62.6992 101.2 62.3991 100.2 61.5991C99.2003 60.7991 98.7003 59.6992 98.7003 58.4991C98.7003 43.1992 86.7003 30.6991 71.4003 29.9991C55.7003 29.2991 42.3003 41.4991 41.6003 57.1991L41.5003 59.4991C41.4003 61.6992 39.5003 63.3992 37.3003 63.2992C35.1003 63.1992 33.4003 61.2991 33.5003 59.0991L33.6003 56.7992C34.5003 36.6992 51.6003 20.9991 71.7003 21.8991C89.7003 22.6991 104.1 36.2991 106.3 53.7991C107.7 53.6991 109 53.6991 110.4 53.6991C127.8 54.4991 141.3 69.2991 140.5 86.5991C140.2 92.8991 138.1 98.8991 134.3 103.999C133.7 105.199 132.5 105.799 131.2 105.799Z" fill="#2F2F2F"/>
<path d="M16.1002 112.599C15.3002 112.599 14.4002 112.299 13.7002 111.799C5.30018 105.499 0.600177 95.4994 1.00018 85.0994C1.40018 76.6994 5.00018 68.8994 11.2002 63.1994C17.4002 57.4994 25.5002 54.5994 34.0002 54.9994C44.9002 55.4994 54.9002 61.6994 60.2002 71.2994C61.3002 73.1994 60.6002 75.6994 58.6002 76.6994C56.7002 77.7994 54.2002 77.0994 53.2002 75.0994C49.3002 67.9994 41.8002 63.2994 33.6002 62.8994C27.3002 62.5994 21.3002 64.7994 16.6002 69.0994C12.0002 73.2994 9.30018 79.0994 9.00018 85.3994C8.60018 93.1994 12.2002 100.699 18.4002 105.299C20.2002 106.599 20.5002 109.099 19.2002 110.899C18.5002 111.999 17.3002 112.599 16.1002 112.599Z" fill="#2F2F2F"/>
<path d="M100.699 137.999C99.6992 137.999 98.6992 137.599 97.8992 136.799C96.2992 135.199 96.2992 132.699 97.8992 131.099L114.399 114.599C115.999 112.999 118.499 112.999 120.099 114.599C121.699 116.199 121.699 118.699 120.099 120.299L103.599 136.799C102.699 137.599 101.699 137.999 100.699 137.999Z" fill="#57AAFF"/>
<path d="M25.8008 134.2C24.8008 134.2 23.8008 133.8 23.0008 133C21.4008 131.4 21.4008 128.9 23.0008 127.3L39.5008 110.8C41.1008 109.2 43.6008 109.2 45.2008 110.8C46.8008 112.4 46.8008 114.9 45.2008 116.5L28.6008 133C27.9008 133.8 26.8008 134.2 25.8008 134.2Z" fill="#57AAFF"/>
<path d="M90.8995 116.5C89.8995 116.5 88.8995 116.1 88.0995 115.4C86.4995 113.9 86.4995 111.3 87.9995 109.7L101.4 95.7997C102.9 94.1997 105.5 94.1997 107.1 95.6997C108.7 97.1997 108.7 99.7997 107.2 101.4L93.7995 115.3C92.8995 116.1 91.8995 116.5 90.8995 116.5Z" fill="#57AAFF"/>
<path d="M64.2011 138.399C63.2011 138.399 62.1011 137.999 61.4011 137.199C59.8011 135.599 59.9011 133.099 61.4011 131.499L69.9011 123.099C71.5011 121.499 74.0011 121.599 75.6011 123.099C77.2011 124.699 77.1011 127.199 75.6011 128.799L67.1011 137.199C66.2011 137.999 65.2011 138.399 64.2011 138.399Z" fill="#57AAFF"/>
<path d="M57.3995 119.499C56.3995 119.499 55.3995 119.099 54.5995 118.399C52.9995 116.899 52.9995 114.299 54.4995 112.699L67.9995 98.8993C69.4995 97.2993 72.0995 97.2993 73.6995 98.7993C75.2995 100.299 75.2995 102.899 73.7995 104.499L60.3995 118.399C59.4995 119.099 58.4995 119.499 57.3995 119.499Z" fill="#57AAFF"/>
<path d="M7.69922 39.4998C7.39922 39.4998 7.19922 39.4998 6.89922 39.3998C6.59922 39.3998 6.39922 39.2998 6.09922 39.1998C5.89922 39.0998 5.59922 38.9998 5.39922 38.7998C5.19922 38.6998 4.99922 38.4998 4.79922 38.2998C4.59922 38.0998 4.49922 37.8998 4.29922 37.6998C4.19922 37.4998 4.09922 37.1998 3.99922 36.9998C3.89922 36.7998 3.79922 36.4998 3.79922 36.1998C3.79922 35.8998 3.69922 35.6998 3.69922 35.3998C3.69922 34.2998 4.09922 33.2998 4.89922 32.5998C5.09922 32.3998 5.29922 32.2998 5.49922 32.0998C5.69922 31.9998 5.99922 31.7998 6.19922 31.6998C6.39922 31.5998 6.69922 31.4998 6.99922 31.4998C7.49922 31.3998 8.09922 31.3998 8.59922 31.4998C8.89922 31.4998 9.09922 31.5998 9.39922 31.6998C9.59922 31.7998 9.89922 31.8998 10.0992 32.0998C10.2992 32.2998 10.4992 32.3998 10.6992 32.5998C10.6992 32.7998 10.8992 32.9998 10.9992 33.2998C11.0992 33.4998 11.2992 33.7998 11.3992 33.9998C11.4992 34.1998 11.5992 34.4998 11.5992 34.7998C11.5992 34.9998 11.6992 35.2998 11.6992 35.5998C11.6992 35.8998 11.6992 36.0998 11.5992 36.3998C11.5992 36.5998 11.4992 36.8998 11.3992 37.1998C11.2992 37.3998 11.1992 37.6998 10.9992 37.8998C10.8992 38.0998 10.6992 38.2998 10.4992 38.4998C9.79922 38.9998 8.69922 39.4998 7.69922 39.4998Z" fill="#2F2F2F"/>
<path d="M24.4008 42.1999C24.1008 42.1999 23.9008 42.1999 23.6008 42.0999C23.4008 41.9999 23.1008 41.9999 22.8008 41.8999C22.6008 41.7999 22.3008 41.6999 22.1008 41.4999C21.9008 41.3999 21.7008 41.1999 21.5008 40.9999C21.3008 40.7999 21.1008 40.5999 21.0008 40.3999C20.9008 40.1999 20.7008 39.8999 20.6008 39.6999C20.5008 39.4999 20.4008 39.1999 20.4008 38.8999C20.4008 38.5999 20.3008 38.3999 20.3008 38.0999C20.3008 36.9999 20.7008 35.9999 21.5008 35.2999C21.7008 35.0999 21.9008 34.8999 22.1008 34.7999C22.3008 34.6999 22.6008 34.4999 22.8008 34.3999C23.0008 34.2999 23.3008 34.1999 23.6008 34.1999C24.9008 33.9999 26.3008 34.3999 27.2008 35.2999C28.0008 35.9999 28.4008 37.0999 28.4008 38.0999C28.4008 38.3999 28.4008 38.5999 28.3008 38.8999C28.2008 39.0999 28.2008 39.3999 28.1008 39.6999C28.0008 39.8999 27.9008 40.1999 27.7008 40.3999C27.5008 40.5999 27.4008 40.7999 27.2008 40.9999C26.5008 41.7999 25.5008 42.1999 24.4008 42.1999Z" fill="#9975FF"/>
<path d="M34 22.3993C33.7 22.3993 33.5 22.3993 33.2 22.2993C32.9 22.2993 32.7 22.1993 32.4 22.0993C32.2 21.9993 31.9 21.8993 31.7 21.6993C31.5 21.5993 31.3 21.3993 31.1 21.1993C30.9 20.9993 30.8 20.7993 30.6 20.5993C30.5 20.3993 30.3 20.0993 30.2 19.8993C30.1 19.6993 30 19.3993 30 19.0993C30.1 18.9993 30 18.6993 30 18.3993C30 17.3993 30.4 16.2993 31.2 15.5993C32.1 14.6993 33.5 14.1993 34.8 14.4993C35 14.4993 35.3 14.5993 35.6 14.6993C35.8 14.7993 36.1 14.8993 36.3 15.0993C36.5 15.2993 36.7 15.3993 36.9 15.5993C37.6 16.3993 38.1 17.3993 38.1 18.3993C38.1 18.6993 38.1 18.8993 38 19.1993C37.9 19.4993 37.9 19.6993 37.8 19.9993C37.7 20.1993 37.6 20.4993 37.4 20.6993C37.3 20.8993 37.1 21.0993 36.9 21.2993C36.7 21.4993 36.5 21.6993 36.3 21.7993C36.1 21.8993 35.8 22.0993 35.6 22.1993C35.4 22.2993 35.1 22.3993 34.8 22.3993C34.6 22.3993 34.3 22.3993 34 22.3993Z" fill="#9975FF"/>
<defs>
<linearGradient id="paint0_linear" x1="102.466" y1="4.5963" x2="130.282" y2="77.0584" gradientUnits="userSpaceOnUse">
<stop stop-color="#B9A0FF"/>
<stop offset="1" stop-color="#855AFF"/>
</linearGradient>
</defs>
</svg>
