<svg width="147" height="143" viewBox="0 0 147 143" fill="none" xmlns="http://www.w3.org/2000/svg">
<path d="M113.8 100.7C113.3 100.7 112.8 100.7 112.3 100.7C110.1 100.6 108.4 98.6996 108.5 96.4996C108.6 94.2996 110.4 92.5996 112.7 92.6996C126.5 93.2996 138.2 82.5996 138.9 68.7996C139.5 54.9996 128.8 43.2996 115 42.5996C112.7 42.4996 110.4 42.6996 108.1 43.2996C106.9 43.5996 105.7 43.2996 104.7 42.4996C103.7 41.6996 103.2 40.5996 103.2 39.3996C103 23.0996 90.3004 9.79959 74.1004 8.99959C66.0004 8.69959 58.2004 11.4996 52.3004 16.8996C46.4004 22.2996 42.8004 29.7996 42.5004 37.8996L42.4004 40.2996L34.4004 39.9996L34.5004 37.5996C34.9004 27.3996 39.3004 17.8996 46.9004 10.9996C54.4004 4.09959 64.2004 0.599587 74.4004 0.999587C93.4004 1.79959 108.5 16.1996 110.7 34.5996C112.2 34.4996 113.7 34.3996 115.2 34.4996C133.4 35.2996 147.6 50.7996 146.8 68.9996C146 86.7996 131.3 100.7 113.8 100.7Z" fill="#2F2F2F"/>
<path d="M31.7998 101.799C31.6998 101.799 31.6998 101.799 31.5998 101.799C22.7998 101.399 14.5998 97.5992 8.69983 91.0992C2.69983 84.5992 -0.300171 76.0992 0.0998291 67.2992C0.899829 49.0992 16.3998 34.8992 34.5998 35.6992C45.8998 36.1992 56.0998 42.3992 61.7998 52.1992C62.8998 54.0992 62.1998 56.5992 60.2998 57.6992C58.3998 58.7992 55.8998 58.0992 54.7998 56.1992C50.4998 48.6992 42.7998 44.0992 34.1998 43.6992C20.3998 43.0992 8.59983 53.8992 7.99983 67.6992C7.69983 74.3992 9.99983 80.7992 14.4998 85.6992C18.9998 90.5992 25.1998 93.4992 31.8998 93.7992C34.0998 93.8992 35.7998 95.7992 35.6998 97.9992C35.6998 100.099 33.8998 101.799 31.7998 101.799Z" fill="#2F2F2F"/>
<path d="M66.6992 74.2998H93.6992L76.6992 97.6998H96.3992L58.5992 142.2L67.3992 108.3H51.6992L66.6992 74.2998Z" fill="url(#paint0_linear)"/>
<defs>
<linearGradient id="paint0_linear" x1="74.0421" y1="74.3082" x2="74.0421" y2="142.159" gradientUnits="userSpaceOnUse">
<stop stop-color="#FF8D55"/>
<stop offset="1" stop-color="#FF6B57"/>
</linearGradient>
</defs>
</svg>
