<svg width="162" height="163" viewBox="0 0 162 163" fill="none" xmlns="http://www.w3.org/2000/svg">
<path d="M161.299 44.3002C157.299 64.3002 137.799 77.3002 117.799 73.3002C97.7992 69.3002 84.7992 49.8002 88.7992 29.8002C92.7992 9.80022 112.299 -3.19978 132.299 0.800223C133.899 1.10022 135.499 1.50022 136.999 2.10022C128.299 14.0002 130.899 30.7002 142.899 39.4002C148.199 43.1002 154.799 44.9002 161.299 44.3002Z" fill="url(#paint0_linear)"/>
<path d="M4 39.1004C2.9 39.1004 1.9 38.7004 1.2 37.9004C1 37.7004 0.8 37.5004 0.7 37.3004C0.6 37.1004 0.4 36.8004 0.3 36.6004C0.2 36.4004 0.0999999 36.1004 0.0999999 35.8004C0.0999999 35.5004 0 35.3004 0 35.0004C0 33.9004 0.4 32.9004 1.2 32.2004C1.4 32.0004 1.6 31.9004 1.8 31.7004C2 31.6004 2.3 31.4004 2.5 31.3004C2.7 31.2004 3 31.1004 3.3 31.1004C3.8 31.0004 4.4 31.0004 4.9 31.1004C5.2 31.1004 5.4 31.2004 5.6 31.3004C5.8 31.4004 6.1 31.5004 6.3 31.7004C6.5 31.9004 6.7 32.0004 6.9 32.2004C7.6 33.1004 8 34.1004 8 35.1004C8 35.4004 8 35.6004 7.9 35.9004C7.8 36.1004 7.8 36.4004 7.7 36.7004C7.6 37.0004 7.5 37.2004 7.3 37.4004C7.2 37.6004 7 37.8004 6.8 38.0004C6.1 38.7004 5 39.1004 4 39.1004Z" fill="#9975FF"/>
<path d="M22.5996 42.4004C21.5996 42.4004 20.4996 42.0004 19.7996 41.2004C19.0996 40.4004 18.5996 39.4004 18.5996 38.4004C18.5996 38.1004 18.5996 37.9004 18.6996 37.6004C18.6996 37.4004 18.7996 37.1004 18.8996 36.9004C18.9996 36.7004 19.0996 36.4004 19.2996 36.2004C19.3996 36.0004 19.5996 35.8004 19.7996 35.6004C20.5996 34.8004 21.5996 34.4004 22.5996 34.4004C23.5996 34.4004 24.6996 34.8004 25.3996 35.6004C25.5996 35.8004 25.7996 36.0004 25.8996 36.2004C25.9996 36.4004 26.1996 36.6004 26.2996 36.9004C26.3996 37.1004 26.4996 37.4004 26.4996 37.6004C26.5996 37.9004 26.5996 38.1004 26.5996 38.4004C26.5996 39.5004 26.1996 40.5004 25.3996 41.2004C24.5996 42.0004 23.5996 42.4004 22.5996 42.4004Z" fill="#2F2F2F"/>
<path d="M33.0004 20.9007C32.7004 20.9007 32.5004 20.9007 32.2004 20.8007C32.0004 20.8007 31.7004 20.7007 31.4004 20.6007C31.2004 20.5007 30.9004 20.4007 30.7004 20.2007C30.5004 20.1007 30.3004 19.9007 30.1004 19.7007C29.9004 19.5007 29.7004 19.3007 29.6004 19.1007C29.5004 18.9007 29.3004 18.6007 29.2004 18.4007C29.1004 18.2007 29.0004 17.9007 29.0004 17.6007C29.0004 17.3007 28.9004 17.1007 28.9004 16.8007C28.9004 15.7007 29.3004 14.7007 30.1004 14.0007C31.0004 13.1007 32.4004 12.6007 33.7004 12.9007C34.0004 13.0007 34.2004 13.0007 34.5004 13.1007C34.7004 13.2007 35.0004 13.3007 35.2004 13.5007C35.4004 13.7007 35.6004 13.8007 35.8004 14.0007C36.0004 14.2007 36.2004 14.4007 36.3004 14.6007C36.4004 14.8007 36.6004 15.0007 36.7004 15.3007C36.8004 15.5007 36.9004 15.8007 36.9004 16.0007C36.9004 16.3007 37.0004 16.5007 37.0004 16.8007C37.0004 17.1007 37.0004 17.3007 36.9004 17.6007C36.8004 17.8007 36.8004 18.1007 36.7004 18.4007C36.6004 18.6007 36.5004 18.9007 36.3004 19.1007C36.2004 19.3007 36.0004 19.5007 35.8004 19.7007C35.6004 19.9007 35.4004 20.1007 35.2004 20.2007C35.0004 20.4007 34.7004 20.5007 34.5004 20.6007C34.3004 20.7007 34.0004 20.8007 33.7004 20.8007C33.5004 20.9007 33.3004 20.9007 33.0004 20.9007Z" fill="#9975FF"/>
<path d="M113.8 120.702C113.3 120.702 112.8 120.702 112.3 120.702C110.1 120.602 108.4 118.702 108.5 116.502C108.6 114.302 110.4 112.602 112.7 112.702C126.5 113.302 138.2 102.602 138.9 88.8015C139.2 82.1015 136.9 75.7015 132.4 70.8015C127.9 65.9015 121.7 63.0015 115 62.7015C112.7 62.6015 110.4 62.8015 108.1 63.4015C106.9 63.7015 105.7 63.4015 104.7 62.6015C103.7 61.8015 103.2 60.7015 103.2 59.5015C103 43.1015 90.3004 29.8015 74.1004 29.0015C66.0004 28.7015 58.2004 31.5015 52.3004 36.9015C46.4004 42.3015 42.8004 49.8015 42.5004 57.9015L42.4004 60.3015L34.4004 60.0015L34.5004 57.6015C34.9004 47.4015 39.3004 37.9015 46.9004 31.0015C54.4004 24.1015 64.2004 20.6015 74.4004 21.0015C93.4004 21.8015 108.5 36.2015 110.7 54.6015C112.2 54.5015 113.7 54.4015 115.2 54.5015C124 54.9015 132.2 58.7015 138.1 65.2015C144.1 71.7015 147.1 80.2015 146.7 89.0015C146.3 97.8015 142.5 106.002 136 111.902C129.9 117.602 122 120.702 113.8 120.702Z" fill="#2F2F2F"/>
<path d="M31.7998 121.801C31.6998 121.801 31.6998 121.801 31.5998 121.801C22.7998 121.401 14.5998 117.601 8.69983 111.101C2.69983 104.601 -0.300171 96.1012 0.0998291 87.3012C0.899829 69.1012 16.3998 54.9012 34.5998 55.7012C45.8998 56.2012 56.0998 62.4012 61.7998 72.2012C62.8998 74.1012 62.1998 76.6012 60.2998 77.7012C58.3998 78.8012 55.8998 78.1012 54.7998 76.2012C50.4998 68.7012 42.7998 64.1012 34.1998 63.7012C20.3998 63.1012 8.59983 73.9012 7.99983 87.7012C7.69983 94.4012 9.99983 100.801 14.4998 105.701C18.9998 110.601 25.1998 113.501 31.8998 113.801C34.0998 113.901 35.7998 115.801 35.6998 118.001C35.6998 120.101 33.8998 121.801 31.7998 121.801Z" fill="#2F2F2F"/>
<path d="M66.6992 94.3018H93.6992L76.6992 117.702H96.3992L58.5992 162.202L67.3992 128.302H51.6992L66.6992 94.3018Z" fill="url(#paint1_linear)"/>
<defs>
<linearGradient id="paint0_linear" x1="107.664" y1="4.24114" x2="136.564" y2="72.3246" gradientUnits="userSpaceOnUse">
<stop stop-color="#B9A0FF"/>
<stop offset="1" stop-color="#855AFF"/>
</linearGradient>
<linearGradient id="paint1_linear" x1="74.0548" y1="94.3275" x2="74.0548" y2="162.178" gradientUnits="userSpaceOnUse">
<stop stop-color="#FF8D55"/>
<stop offset="1" stop-color="#FF6B57"/>
</linearGradient>
</defs>
</svg>
