<svg width="137" height="142" viewBox="0 0 137 142" fill="none" xmlns="http://www.w3.org/2000/svg">
<path d="M69.3711 126.31C67.1711 126.31 65.3711 124.51 65.3711 122.31V32.5098C65.3711 30.3098 67.1711 28.5098 69.3711 28.5098C71.5711 28.5098 73.3711 30.3098 73.3711 32.5098V122.31C73.3711 124.51 71.6711 126.31 69.3711 126.31Z" fill="#57AAFF"/>
<path d="M31.1723 104.91C29.8723 104.91 28.4723 104.21 27.7723 103.01C26.5723 101.11 27.1723 98.71 29.0723 97.51L105.572 50.41C107.472 49.21 109.872 49.81 111.072 51.71C112.272 53.61 111.672 56.01 109.772 57.21L33.2723 104.41C32.6723 104.81 31.8723 104.91 31.1723 104.91Z" fill="#57AAFF"/>
<path d="M107.672 104.91C106.972 104.91 106.272 104.71 105.572 104.31L29.0723 57.3096C27.1723 56.1096 26.5723 53.7096 27.7723 51.8096C28.9723 49.9096 31.3723 49.3096 33.2723 50.5096L109.772 97.5096C111.672 98.7096 112.272 101.11 111.072 103.01C110.272 104.31 108.972 104.91 107.672 104.91Z" fill="#57AAFF"/>
<path d="M69.3723 54.5096C68.3723 54.5096 67.3723 54.1096 66.5723 53.3096L51.7723 38.7096C50.1723 37.1096 50.1723 34.6096 51.7723 33.0096C53.3723 31.5096 55.8723 31.5096 57.4723 33.0096L69.3723 44.9096L81.2723 33.0096C82.8723 31.4096 85.3723 31.4096 86.9723 33.0096C88.5723 34.6096 88.5723 37.1096 86.9723 38.7096L72.1723 53.4096C71.3723 54.2096 70.3723 54.5096 69.3723 54.5096Z" fill="#57AAFF"/>
<path d="M54.6719 122.21C53.6719 122.21 52.5719 121.81 51.8719 121.01C50.2719 119.41 50.2719 116.91 51.8719 115.31L66.5719 100.61C68.1719 99.0102 70.6719 99.0102 72.1719 100.61L86.8719 115.31C88.4719 116.91 88.4719 119.41 86.8719 121.01C85.2719 122.61 82.7719 122.61 81.1719 121.01L69.3719 109.21L57.4719 121.01C56.6719 121.81 55.6719 122.21 54.6719 122.21Z" fill="#57AAFF"/>
<path d="M112.271 72.5097C111.971 72.5097 111.571 72.5097 111.271 72.4097L91.0715 67.3097C88.9715 66.8097 87.6715 64.6097 88.1715 62.5097L93.1715 42.3097C93.6715 40.2097 95.8715 38.9097 98.0715 39.4097C100.171 39.9097 101.471 42.1097 100.971 44.2097L96.9715 60.5097L113.271 64.6097C115.371 65.1097 116.671 67.3097 116.171 69.5097C115.671 71.3097 114.071 72.5097 112.271 72.5097Z" fill="#57AAFF"/>
<path d="M41.5719 114.81C41.2719 114.81 40.9719 114.81 40.5719 114.71C38.4719 114.21 37.1719 112.01 37.6719 109.91L41.7719 93.5097L25.4719 89.4097C23.3719 88.9097 22.0719 86.7097 22.5719 84.5097C23.0719 82.3097 25.2719 81.1097 27.4719 81.6097L47.6719 86.7097C49.7719 87.2097 51.0719 89.4097 50.5719 91.5097L45.5719 111.71C44.9719 113.61 43.3719 114.81 41.5719 114.81Z" fill="#57AAFF"/>
<path d="M97.0715 114.81C95.2715 114.81 93.6715 113.61 93.1715 111.81L88.1715 91.6096C87.6715 89.5096 88.9715 87.3096 91.0715 86.8096L111.271 81.7096C113.371 81.2096 115.571 82.5096 116.171 84.6096C116.671 86.7096 115.371 88.9096 113.271 89.5096L96.9715 93.6096L100.971 109.91C101.471 112.01 100.171 114.21 98.0715 114.71C97.6715 114.81 97.3715 114.81 97.0715 114.81Z" fill="#57AAFF"/>
<path d="M26.4719 72.4097C24.6719 72.4097 23.0719 71.2097 22.5719 69.4097C22.0719 67.3097 23.3719 65.1097 25.4719 64.5097L41.7719 60.5097L37.7719 44.2097C37.2719 42.1097 38.5719 39.9097 40.6719 39.4097C42.7719 38.9097 44.9719 40.2097 45.4719 42.3097L50.4719 62.5097C50.9719 64.6097 49.6719 66.8097 47.5719 67.3097L27.4719 72.3097C27.1719 72.4097 26.7719 72.4097 26.4719 72.4097Z" fill="#57AAFF"/>
<path d="M85.2876 8.95427C84.9876 8.95427 84.7875 8.9543 84.4875 8.8543C84.1875 8.8543 83.9875 8.75428 83.6875 8.65428C83.4875 8.55428 83.1875 8.45432 82.9875 8.25432C82.7875 8.05432 82.5875 7.95432 82.3875 7.75432C82.1875 7.55432 81.9875 7.35428 81.8875 7.15428C81.7875 6.95428 81.5875 6.65427 81.4875 6.45427C81.3875 6.25427 81.2876 5.95428 81.2876 5.65428C81.2876 5.35428 81.1875 5.1543 81.1875 4.8543C81.1875 4.5543 81.1876 4.35431 81.2876 4.05431C81.3876 3.75431 81.3875 3.55432 81.4875 3.25432C81.5875 3.05432 81.6875 2.75431 81.8875 2.55431C81.9875 2.35431 82.1875 2.15427 82.3875 1.95427C82.5875 1.75427 82.7875 1.55427 82.9875 1.45427C83.1875 1.25427 83.4875 1.15431 83.6875 1.05431C83.8875 0.954309 84.1875 0.854297 84.4875 0.854297C84.9875 0.754297 85.5876 0.754297 86.0876 0.854297C86.3876 0.854297 86.5875 0.954309 86.8875 1.05431C87.0875 1.15431 87.3876 1.25427 87.5876 1.45427C87.7876 1.55427 87.9875 1.75427 88.1875 1.95427C88.3875 2.15427 88.5875 2.35431 88.6875 2.55431C88.7875 2.75431 88.9876 3.05432 89.0876 3.25432C89.1876 3.45432 89.2876 3.75431 89.2876 4.05431C89.2876 4.35431 89.3875 4.5543 89.3875 4.8543C89.3875 5.1543 89.3876 5.35428 89.2876 5.65428C89.1876 5.95428 89.1876 6.15427 89.0876 6.45427C88.9876 6.65427 88.8875 6.95428 88.6875 7.15428C88.5875 7.35428 88.3875 7.55432 88.1875 7.75432C87.3875 8.55432 86.3876 8.95427 85.2876 8.95427Z" fill="#2D58FF"/>
<path d="M107.487 30.1541C107.187 30.1541 106.987 30.1541 106.687 30.0541C106.487 29.9541 106.187 29.9541 105.887 29.8541C105.687 29.7541 105.387 29.6541 105.187 29.4541C104.987 29.2541 104.787 29.1541 104.587 28.9541C103.887 28.1541 103.387 27.1541 103.387 26.1541C103.387 25.8541 103.387 25.6541 103.487 25.3541C103.587 25.1541 103.587 24.8541 103.687 24.5541C103.787 24.2541 103.887 24.0541 104.087 23.8541C104.187 23.6541 104.387 23.4541 104.587 23.2541C104.787 23.0541 104.987 22.9541 105.187 22.7541C105.387 22.6541 105.587 22.4541 105.887 22.3541C106.087 22.2541 106.387 22.1541 106.687 22.1541C107.187 22.0541 107.687 22.0541 108.287 22.1541C108.587 22.1541 108.787 22.2541 109.087 22.3541C109.287 22.4541 109.587 22.5541 109.787 22.7541C109.987 22.9541 110.187 23.0541 110.387 23.2541C110.587 23.4541 110.787 23.6541 110.887 23.8541C110.987 24.0541 111.187 24.2541 111.287 24.5541C111.387 24.8541 111.487 25.0541 111.487 25.3541C111.587 25.6541 111.587 25.8541 111.587 26.1541C111.587 26.4541 111.587 26.6541 111.487 26.9541C111.487 27.2541 111.387 27.4541 111.287 27.7541C111.187 27.9541 111.087 28.2541 110.887 28.4541C110.787 28.6541 110.587 28.8541 110.387 29.0541C110.187 29.2541 109.987 29.3541 109.787 29.5541C109.587 29.6541 109.287 29.8541 109.087 29.9541C108.887 30.0541 108.587 30.1541 108.287 30.1541C107.987 30.1541 107.687 30.1541 107.487 30.1541Z" fill="#57AAFF"/>
<path d="M4.98682 81.2547C4.68682 81.2547 4.48677 81.2547 4.18677 81.1547C3.88677 81.1547 3.68672 81.0547 3.38672 80.9547C3.18672 80.8547 2.88677 80.7547 2.68677 80.5547C2.48677 80.3547 2.28691 80.2547 2.08691 80.0547C1.88691 79.8547 1.68691 79.6547 1.58691 79.4547C1.48691 79.2547 1.28677 78.9547 1.18677 78.7547C1.08677 78.5547 0.986816 78.2547 0.986816 77.9547C0.886816 77.7547 0.886719 77.4547 0.886719 77.1547C0.886719 76.8547 0.886816 76.6547 0.986816 76.3547C0.986816 76.0547 1.08677 75.8547 1.18677 75.5547C1.28677 75.3547 1.38691 75.0547 1.58691 74.8547C1.68691 74.6547 1.88691 74.4547 2.08691 74.2547C2.88691 73.5547 3.88672 73.0547 4.88672 73.0547C5.88672 73.0547 6.98677 73.4547 7.68677 74.2547C7.88677 74.4547 7.98677 74.6547 8.18677 74.8547C8.28677 75.0547 8.48691 75.3547 8.58691 75.5547C8.68691 75.7547 8.78687 76.0547 8.78687 76.3547C8.78687 76.6547 8.88672 76.8547 8.88672 77.1547C8.88672 78.2547 8.48677 79.2547 7.68677 79.9547C7.48677 80.1547 7.28691 80.2547 7.08691 80.4547C6.88691 80.5547 6.68672 80.7547 6.38672 80.8547C6.18672 80.9547 5.88691 81.0547 5.58691 81.0547C5.48691 81.2547 5.28682 81.2547 4.98682 81.2547Z" fill="#2D58FF"/>
<path d="M16.1858 29.054C15.8858 29.054 15.6857 29.054 15.3857 28.954C15.0857 28.854 14.8859 28.854 14.5859 28.754C14.3859 28.654 14.0857 28.554 13.8857 28.354C13.6857 28.254 13.4859 28.054 13.2859 27.854C13.0859 27.654 12.8859 27.454 12.7859 27.254C12.6859 27.054 12.4857 26.754 12.3857 26.554C12.2857 26.354 12.1858 26.054 12.1858 25.754C12.1858 25.454 12.0859 25.254 12.0859 24.954C12.0859 24.654 12.0858 24.454 12.1858 24.154C12.2858 23.954 12.2857 23.654 12.3857 23.454C12.4857 23.254 12.5859 22.954 12.7859 22.754C12.8859 22.554 13.0859 22.354 13.2859 22.154C14.1859 21.254 15.5857 20.754 16.8857 21.054C17.1857 21.154 17.3858 21.154 17.6858 21.254C17.8858 21.354 18.1857 21.454 18.3857 21.654C18.5857 21.754 18.7858 21.954 18.9858 22.154C19.1858 22.354 19.3858 22.554 19.4858 22.754C19.5858 22.954 19.7857 23.254 19.8857 23.454C19.9857 23.654 20.0859 23.954 20.0859 24.154C20.1859 24.454 20.1858 24.654 20.1858 24.954C20.1858 25.254 20.1859 25.454 20.0859 25.754C19.9859 25.954 19.9857 26.254 19.8857 26.554C19.7857 26.754 19.6858 27.054 19.4858 27.254C19.3858 27.454 19.1858 27.654 18.9858 27.854C18.7858 28.054 18.5857 28.154 18.3857 28.354C18.1857 28.554 17.8858 28.654 17.6858 28.754C17.4858 28.854 17.1857 28.954 16.8857 28.954C16.6857 29.054 16.3858 29.054 16.1858 29.054Z" fill="#57AAFF"/>
<path d="M132.787 121.954C132.487 121.954 132.287 121.954 131.987 121.854C131.787 121.854 131.487 121.754 131.287 121.654C131.087 121.554 130.787 121.454 130.587 121.254C130.387 121.154 130.187 120.954 129.987 120.754C129.787 120.554 129.587 120.354 129.487 120.154C129.387 119.954 129.187 119.754 129.087 119.454C128.987 119.254 128.887 118.954 128.887 118.654C128.787 118.354 128.787 118.154 128.787 117.854C128.787 117.554 128.787 117.354 128.887 117.054C128.987 116.854 128.987 116.554 129.087 116.354C129.187 116.154 129.287 115.854 129.487 115.654C129.587 115.454 129.787 115.254 129.987 115.054C130.187 114.854 130.387 114.754 130.587 114.554C130.787 114.454 131.087 114.254 131.287 114.154C131.487 114.054 131.787 113.954 131.987 113.954C132.487 113.854 132.987 113.854 133.587 113.954C133.787 114.054 134.087 114.054 134.387 114.154C134.587 114.254 134.887 114.354 135.087 114.554C135.287 114.754 135.487 114.854 135.687 115.054C135.887 115.254 136.087 115.454 136.187 115.654C136.287 115.854 136.487 116.154 136.587 116.354C136.687 116.554 136.787 116.854 136.787 117.054C136.787 117.354 136.887 117.554 136.887 117.854C136.887 118.854 136.487 119.954 135.687 120.654C135.487 120.854 135.287 121.054 135.087 121.154C134.887 121.254 134.687 121.454 134.387 121.554C134.187 121.654 133.887 121.754 133.587 121.754C133.287 121.854 132.987 121.954 132.787 121.954Z" fill="#57AAFF"/>
<path d="M41.8867 141.954C40.8867 141.954 39.7869 141.554 39.0869 140.754C38.3869 140.054 37.8867 138.954 37.8867 137.954C37.8867 136.954 38.2869 135.854 39.0869 135.154C39.8869 134.454 40.8867 133.954 41.8867 133.954C42.9867 133.954 43.9868 134.354 44.6868 135.154C45.3868 135.954 45.8867 136.954 45.8867 137.954C45.8867 139.054 45.4868 140.054 44.6868 140.754C44.4868 140.954 44.2869 141.054 44.0869 141.254C43.8869 141.354 43.5867 141.554 43.3867 141.654C43.1867 141.754 42.8869 141.854 42.5869 141.854C42.4869 141.954 42.1867 141.954 41.8867 141.954Z" fill="#57AAFF"/>
</svg>
