<svg width="143" height="112" viewBox="0 0 143 112" fill="none" xmlns="http://www.w3.org/2000/svg">
<path d="M85.4995 112C81.5995 112 77.6995 110.9 74.2995 108.7C70.0995 106 64.7995 106 60.6996 108.7C53.8996 113.1 45.0995 113.1 38.3995 108.7C34.2995 106 28.8995 106 24.7995 108.7C22.8995 109.9 20.4995 109.4 19.2995 107.5C18.0995 105.6 18.5995 103.2 20.4995 102C27.2995 97.6002 35.9995 97.6002 42.7995 102C46.8995 104.7 52.2995 104.7 56.3995 102C63.1995 97.6002 71.9995 97.6002 78.6996 102C82.8996 104.7 88.1995 104.7 92.2995 102C94.1995 100.8 96.5995 101.3 97.7995 103.2C98.9995 105.1 98.4995 107.5 96.5995 108.7C93.2995 110.9 89.3995 112 85.4995 112Z" fill="#2F2F2F"/>
<path d="M121.398 84.5002C117.498 84.5002 113.598 83.4001 110.198 81.2001C105.998 78.5001 100.698 78.5001 96.5984 81.2001C96.5984 81.2001 96.4984 81.2002 96.4984 81.3002C89.6984 85.7002 80.9984 85.7002 74.1984 81.3002C70.0984 78.6002 64.6984 78.6002 60.5984 81.3002C58.6984 82.5002 56.2984 82.0002 55.0984 80.1002C53.8984 78.2002 54.3983 75.8002 56.2983 74.6002C63.0983 70.2002 71.7984 70.2002 78.5984 74.6002C82.6984 77.3002 88.0984 77.3002 92.1984 74.6002C92.1984 74.6002 92.2983 74.6002 92.2983 74.5002C99.0983 70.1002 107.798 70.1002 114.498 74.5002C118.698 77.2002 123.998 77.2002 128.098 74.5002C129.998 73.3002 132.398 73.8001 133.598 75.7001C134.798 77.6001 134.298 80.0001 132.398 81.2001C129.098 83.4001 125.198 84.5002 121.398 84.5002Z" fill="#2F2F2F"/>
<path d="M49.7991 63.0002C45.8991 63.0002 41.9991 61.9001 38.5991 59.7001C34.3991 57.0001 29.0991 57.0001 24.9991 59.7001C24.9991 59.7001 24.8991 59.7002 24.8991 59.8002C18.1991 64.2002 9.39915 64.2002 2.59915 59.8002C0.69915 58.6002 0.199137 56.1002 1.39914 54.3002C2.59914 52.4002 5.09914 51.9002 6.89914 53.1002C10.9991 55.8002 16.3991 55.8002 20.4991 53.1002C20.4991 53.1002 20.5991 53.1002 20.5991 53.0002C27.2991 48.6002 36.0991 48.6002 42.7991 53.0002C46.9991 55.7002 52.2991 55.7002 56.3991 53.0002C58.2991 51.8002 60.6991 52.3001 61.8991 54.2001C63.0991 56.1001 62.5992 58.5001 60.6992 59.7001C57.5992 61.9001 53.6991 63.0002 49.7991 63.0002Z" fill="#2F2F2F"/>
<path d="M104.398 38.5002C100.498 38.5002 96.5984 37.4001 93.1984 35.2001C88.9984 32.5001 83.6984 32.5001 79.5984 35.2001C79.5984 35.2001 79.4984 35.2002 79.4984 35.3002C72.6984 39.7002 63.9984 39.7002 57.1984 35.3002C53.0984 32.6002 47.6984 32.6002 43.5984 35.3002C41.6984 36.5002 39.2984 36.0002 38.0984 34.1002C36.8984 32.2002 37.3983 29.8002 39.2983 28.6002C46.0983 24.2002 54.7984 24.2002 61.5984 28.6002C65.6984 31.3002 71.0984 31.3002 75.1984 28.6002C75.1984 28.6002 75.2983 28.6002 75.2983 28.5002C82.0983 24.1002 90.7984 24.1002 97.4984 28.5002C101.698 31.2002 106.998 31.2002 111.098 28.5002C112.998 27.3002 115.398 27.8001 116.598 29.7001C117.798 31.6001 117.298 34.0001 115.398 35.2001C112.098 37.4001 108.198 38.5002 104.398 38.5002Z" fill="#2F2F2F"/>
<path d="M17.1996 12.3997C16.8996 12.3997 16.6996 12.3997 16.3996 12.2997C16.1996 12.1997 15.8996 12.1997 15.5996 12.0997C15.3996 11.9997 15.0996 11.8996 14.8996 11.6996C14.6996 11.5996 14.4996 11.3996 14.2996 11.1996C14.0996 10.9996 13.8996 10.7997 13.7996 10.5997C13.6996 10.3997 13.4996 10.0997 13.3996 9.89972C13.2996 9.69972 13.1996 9.39967 13.1996 9.09967C13.1996 8.79967 13.0996 8.59974 13.0996 8.29974C13.0996 7.99974 13.0996 7.79969 13.1996 7.49969C13.2996 7.29969 13.2996 6.99974 13.3996 6.79974C13.4996 6.59974 13.5996 6.29967 13.7996 6.09967C13.8996 5.89967 14.0996 5.69969 14.2996 5.49969C14.4996 5.29969 14.6996 5.09969 14.8996 4.99969C15.0996 4.89969 15.2996 4.69967 15.5996 4.59967C15.7996 4.49967 16.0996 4.39972 16.3996 4.39972C17.6996 4.09972 19.0996 4.59969 19.9996 5.49969C20.1996 5.69969 20.3996 5.89967 20.4996 6.09967C20.5996 6.29967 20.7996 6.49974 20.8996 6.79974C20.9996 6.99974 21.0996 7.29969 21.0996 7.49969C21.0996 7.79969 21.1996 7.99974 21.1996 8.29974C21.1996 8.59974 21.1996 8.79967 21.0996 9.09967C20.9996 9.29967 20.9996 9.59972 20.8996 9.89972C20.7996 10.0997 20.6996 10.3997 20.4996 10.5997C20.3996 10.7997 20.1996 10.9996 19.9996 11.1996C19.1996 11.9996 18.1996 12.3997 17.1996 12.3997Z" fill="#57AAFF"/>
<path d="M12.4984 88.4998C12.1984 88.4998 11.9985 88.4998 11.6985 88.3998C11.3985 88.3998 11.1984 88.2998 10.8984 88.1998C10.6984 88.0998 10.3985 87.9999 10.1985 87.7999C9.99846 87.5999 9.79845 87.4999 9.59845 87.2999C9.39845 87.0999 9.19845 86.8998 9.09845 86.6998C8.99845 86.4998 8.79846 86.1998 8.69846 85.9998C8.59846 85.7998 8.49844 85.4998 8.49844 85.1998C8.39844 84.8998 8.39844 84.6998 8.39844 84.3998C8.39844 83.3998 8.79845 82.2998 9.59845 81.5998C9.79845 81.3998 9.99846 81.1998 10.1985 81.0998C10.3985 80.9998 10.6984 80.7998 10.8984 80.6998C11.0984 80.5998 11.3985 80.4998 11.6985 80.4998C12.1985 80.3998 12.7984 80.3998 13.2984 80.4998C13.5984 80.4998 13.7984 80.5998 14.0984 80.6998C14.2984 80.7998 14.5984 80.8998 14.7984 81.0998C14.9984 81.1998 15.1984 81.3998 15.3984 81.5998C16.0984 82.2998 16.5984 83.3998 16.5984 84.3998C16.5984 84.6998 16.5984 84.8998 16.4984 85.1998C16.3984 85.4998 16.3984 85.6998 16.2984 85.9998C16.1984 86.1998 16.0984 86.4998 15.8984 86.6998C15.7984 86.8998 15.5984 87.0999 15.3984 87.2999C15.1984 87.4999 14.9984 87.5999 14.7984 87.7999C14.5984 87.8999 14.3984 88.0998 14.0984 88.1998C13.8984 88.2998 13.5984 88.3998 13.2984 88.3998C12.9984 88.4998 12.7984 88.4998 12.4984 88.4998Z" fill="#2F2F2F"/>
<path d="M138 106.8C136.9 106.8 135.9 106.4 135.2 105.6C135 105.4 134.8 105.2 134.7 105C134.6 104.8 134.4 104.5 134.3 104.3C134.2 104.1 134.1 103.8 134.1 103.6C134 103.3 134 103.1 134 102.8C134 102.5 134 102.3 134.1 102C134.1 101.8 134.2 101.5 134.3 101.2C134.4 101 134.5 100.7 134.7 100.5C134.8 100.3 135 100.1 135.2 99.9001C136.1 99.0001 137.5 98.5001 138.8 98.8001C139.1 98.8001 139.3 98.9001 139.6 99.0001C139.8 99.1001 140.1 99.2001 140.3 99.4001C140.5 99.5001 140.7 99.7001 140.9 99.9001C141.1 100.1 141.2 100.3 141.4 100.5C141.5 100.7 141.7 101 141.8 101.2C141.9 101.4 142 101.7 142 102C142 102.3 142.1 102.5 142.1 102.8C142.1 103.9 141.7 104.9 140.9 105.6C140.7 105.8 140.5 106 140.3 106.1C140.1 106.2 139.9 106.4 139.6 106.5C139.4 106.6 139.1 106.7 138.8 106.7C138.5 106.8 138.2 106.8 138 106.8Z" fill="#57AAFF"/>
<path d="M121.998 8.80011C121.698 8.80011 121.498 8.80001 121.198 8.70001C120.898 8.70001 120.698 8.60006 120.398 8.50006C120.198 8.40006 119.898 8.30004 119.698 8.10004C119.498 8.00004 119.298 7.80004 119.098 7.60004C118.898 7.40004 118.698 7.20006 118.598 7.00006C118.498 6.80006 118.298 6.50011 118.198 6.30011C118.098 6.10011 117.998 5.80004 117.998 5.60004C117.898 5.30004 117.898 5.10011 117.898 4.80011C117.898 4.50011 117.898 4.30006 117.998 4.00006C117.998 3.80006 118.098 3.50001 118.198 3.20001C118.298 3.00001 118.398 2.70006 118.598 2.50006C118.698 2.30006 118.898 2.10009 119.098 1.90009C119.298 1.70009 119.498 1.50009 119.698 1.40009C119.898 1.20009 120.198 1.10006 120.398 1.00006C120.598 0.900061 120.898 0.80011 121.198 0.80011C122.498 0.50011 123.898 1.00009 124.798 1.90009C124.998 2.10009 125.098 2.30006 125.298 2.50006C125.398 2.70006 125.598 3.00001 125.698 3.20001C125.798 3.40001 125.898 3.70006 125.898 4.00006C125.898 4.30006 125.998 4.50011 125.998 4.80011C125.998 5.10011 125.998 5.30004 125.898 5.60004C125.898 5.80004 125.798 6.10011 125.698 6.30011C125.598 6.50011 125.498 6.80006 125.298 7.00006C125.198 7.20006 124.998 7.40004 124.798 7.60004C123.998 8.40004 122.998 8.80011 121.998 8.80011Z" fill="#57AAFF"/>
</svg>
