<svg width="156" height="110" viewBox="0 0 156 110" fill="none" xmlns="http://www.w3.org/2000/svg">
<path d="M146.401 8.40011C146.101 8.40011 145.901 8.40011 145.601 8.30011C145.401 8.30011 145.101 8.20011 144.801 8.10011C144.601 8.00011 144.301 7.90011 144.101 7.70011C143.901 7.60011 143.701 7.40011 143.501 7.20011C143.301 7.00011 143.101 6.80011 143.001 6.60011C142.901 6.40011 142.701 6.10011 142.601 5.90011C142.501 5.70011 142.401 5.40011 142.401 5.10011C142.301 4.80011 142.301 4.60011 142.301 4.30011C142.301 4.00011 142.301 3.80011 142.401 3.50011C142.501 3.20011 142.501 3.00011 142.601 2.70011C142.701 2.40011 142.801 2.20011 143.001 2.00011C143.101 1.80011 143.301 1.60011 143.501 1.40011C144.401 0.500107 145.801 0.000107273 147.101 0.300107C147.301 0.300107 147.601 0.400107 147.901 0.500107C148.101 0.600107 148.401 0.700107 148.601 0.900107C148.801 1.10011 149.001 1.20011 149.201 1.40011C149.401 1.60011 149.601 1.80011 149.701 2.00011C149.801 2.20011 150.001 2.40011 150.101 2.70011C150.201 2.90011 150.301 3.20011 150.301 3.50011C150.301 3.80011 150.401 4.00011 150.401 4.30011C150.401 4.60011 150.401 4.80011 150.301 5.10011C150.201 5.40011 150.201 5.60011 150.101 5.90011C150.001 6.10011 149.901 6.40011 149.701 6.60011C149.601 6.80011 149.401 7.00011 149.201 7.20011C149.001 7.40011 148.801 7.50011 148.601 7.70011C148.401 7.80011 148.101 8.00011 147.901 8.10011C147.701 8.20011 147.401 8.30011 147.101 8.30011C146.901 8.30011 146.601 8.40011 146.401 8.40011Z" fill="#9975FF"/>
<path d="M142.299 43.6005C141.999 43.6005 141.799 43.6005 141.499 43.5005C141.199 43.4005 140.999 43.4005 140.699 43.3005C140.499 43.2005 140.199 43.1005 139.999 42.9005C139.799 42.8005 139.599 42.6005 139.399 42.4005C138.699 41.6005 138.199 40.6005 138.199 39.6005C138.199 38.6005 138.599 37.5005 139.399 36.8005C139.599 36.6005 139.799 36.4005 139.999 36.3005C140.199 36.2005 140.399 36.0005 140.699 35.9005C140.899 35.8005 141.199 35.7005 141.499 35.7005C142.799 35.4005 144.199 35.9005 145.099 36.8005C145.299 37.0005 145.499 37.2005 145.599 37.4005C145.699 37.6005 145.899 37.9005 145.999 38.1005C146.099 38.3005 146.199 38.6005 146.199 38.9005C146.299 39.2005 146.299 39.4005 146.299 39.7005C146.299 40.8005 145.899 41.8005 145.099 42.5005C144.399 43.1005 143.299 43.6005 142.299 43.6005Z" fill="#2F2F2F"/>
<path d="M43.6992 22.3002C42.5992 22.3002 41.5992 21.9002 40.8992 21.1002C40.6992 20.9002 40.4992 20.7002 40.3992 20.5002C40.2992 20.3002 40.0992 20.0002 39.9992 19.8002C39.8992 19.6002 39.7992 19.3002 39.7992 19.0002C39.6992 18.7002 39.6992 18.5002 39.6992 18.2002C39.6992 17.1002 40.0992 16.1002 40.8992 15.4002C41.6992 14.6002 42.6992 14.2002 43.6992 14.2002C44.7992 14.2002 45.7992 14.6002 46.4992 15.4002C46.6992 15.6002 46.8992 15.8002 46.9992 16.0002C47.0992 16.2002 47.2992 16.5002 47.3992 16.7002C47.4992 16.9002 47.5992 17.2002 47.5992 17.5002C47.5992 17.7002 47.6992 18.0002 47.6992 18.3002C47.6992 18.6002 47.6992 18.8002 47.5992 19.1002C47.4992 19.3002 47.4992 19.6002 47.3992 19.9002C47.2992 20.1002 47.1992 20.4002 46.9992 20.6002C46.8992 20.8002 46.6992 21.0002 46.4992 21.2002C46.2992 21.4002 46.0992 21.6002 45.8992 21.7002C45.6992 21.9002 45.4992 22.0002 45.1992 22.1002C44.9992 22.2002 44.6992 22.3002 44.4992 22.3002C44.1992 22.3002 43.8992 22.3002 43.6992 22.3002Z" fill="#9975FF"/>
<path d="M151.2 100.201C150.9 100.201 150.7 100.201 150.4 100.101C150.2 100.001 149.9 100.001 149.6 99.9006C149.4 99.8006 149.1 99.7006 148.9 99.5006C148.7 99.4006 148.5 99.2006 148.3 99.0006C147.5 98.2006 147.1 97.2006 147.1 96.2006C147.1 95.9006 147.1 95.7006 147.2 95.4006C147.3 95.1006 147.3 94.9006 147.4 94.6006C147.5 94.3006 147.6 94.1006 147.8 93.9006C147.9 93.7006 148.1 93.5006 148.3 93.3006C149 92.5006 150.1 92.1006 151.1 92.1006C152.1 92.1006 153.2 92.5006 153.9 93.3006C154.7 94.0006 155.1 95.1006 155.1 96.1006C155.1 97.1006 154.7 98.2006 153.9 98.9006C153.2 99.8006 152.2 100.201 151.2 100.201Z" fill="#9975FF"/>
<path d="M139.8 63.6005C135 87.5005 111.7 103.001 87.8001 98.2005C63.9001 93.4005 48.4001 70.1005 53.2001 46.2005C58.0001 22.3005 81.3001 6.80051 105.2 11.6005C107.1 12.0005 109 12.5005 110.8 13.1005C100.4 27.3005 103.6 47.3005 117.8 57.7005C124.1 62.3005 132 64.4005 139.8 63.6005Z" fill="url(#paint0_linear)"/>
<path d="M64.4999 109.7C60.6999 109.7 56.9999 108.6 53.6999 106.5C49.6999 103.9 44.6999 103.9 40.7999 106.5C40.7999 106.5 40.6999 106.5 40.6999 106.6C34.1999 110.8 25.6999 110.8 19.0999 106.6C15.1999 104 10.0999 104 6.19992 106.6C4.29992 107.8 1.89992 107.3 0.699922 105.4C-0.500078 103.5 -7.7486e-05 101.1 1.89992 99.9004C8.49992 95.6004 16.9999 95.6004 23.4999 99.9004C27.3999 102.5 32.4999 102.5 36.3999 99.9004C36.3999 99.9004 36.4999 99.9004 36.4999 99.8004C42.9999 95.6004 51.4999 95.6004 58.0999 99.8004C62.0999 102.4 67.0999 102.4 70.9999 99.8004C72.8999 98.6004 75.2999 99.1004 76.4999 101C77.6999 102.9 77.1999 105.3 75.2999 106.5C71.9999 108.7 68.2999 109.7 64.4999 109.7Z" fill="#2F2F2F"/>
<path d="M90.3007 85.2004C86.5007 85.2004 82.8007 84.1004 79.5007 82.0004L79.4007 81.9004C75.6007 79.4004 70.5007 79.4004 66.6007 82.0004C66.6007 82.0004 66.5007 82.0004 66.5007 82.1004C60.0007 86.3004 51.5007 86.3004 44.9007 82.1004C41.0007 79.5004 35.9007 79.5004 32.0007 82.1004C30.1007 83.3004 27.7007 82.8004 26.5007 80.9004C25.3007 79.0004 25.8007 76.6004 27.7007 75.4004C34.3007 71.1004 42.8007 71.1004 49.3007 75.4004C53.2007 78.0004 58.3007 78.0004 62.2007 75.4004C62.2007 75.4004 62.3007 75.4004 62.3007 75.3004C68.8007 71.1004 77.3007 71.1004 83.9007 75.3004L84.0007 75.4004C87.8007 77.9004 92.9007 77.9004 96.8007 75.3004C98.7007 74.1004 101.101 74.6004 102.301 76.5004C103.501 78.4004 103.001 80.8004 101.101 82.0004C97.9007 84.1004 94.1007 85.2004 90.3007 85.2004Z" fill="#2F2F2F"/>
<path d="M65.2007 60.5998C61.5007 60.5998 57.7007 59.4998 54.4007 57.3998H54.3007C50.4007 54.8998 45.3007 54.7998 41.4007 57.3998C41.4007 57.3998 41.3007 57.3998 41.3007 57.4998C34.7007 61.6998 26.3007 61.6998 19.7007 57.4998C17.8007 56.2998 17.3007 53.7998 18.5007 51.9998C19.7007 50.0998 22.2007 49.5998 24.0007 50.7998C27.9007 53.3998 33.0007 53.3998 36.9007 50.7998C36.9007 50.7998 37.0007 50.7998 37.0007 50.6998C43.5007 46.4998 52.0007 46.4998 58.5007 50.6998H58.6007C62.5007 53.1998 67.6007 53.1998 71.5007 50.6998C73.4007 49.4998 75.8007 49.9998 77.0007 51.8998C78.2007 53.7998 77.7007 56.1998 75.8007 57.3998C72.7007 59.4998 68.9007 60.5998 65.2007 60.5998Z" fill="#2F2F2F"/>
<defs>
<linearGradient id="paint0_linear" x1="75.6371" y1="15.7051" x2="110.169" y2="97.056" gradientUnits="userSpaceOnUse">
<stop stop-color="#B9A0FF"/>
<stop offset="1" stop-color="#855AFF"/>
</linearGradient>
</defs>
</svg>
